<svg width="120" height="120" viewBox="0 0 120 120" fill="none" xmlns="http://www.w3.org/2000/svg">
<path d="M15.2551 40.9555V47.911L20.7969 54.3231C23.8099 57.8552 29.9974 65.0824 34.5707 70.4077C41.0271 77.8523 43.0179 79.9715 43.3945 79.6455C43.7173 79.3738 47.107 75.1353 51.0347 70.2447C54.9623 65.2998 58.1906 61.333 58.2444 61.4416C58.352 61.5503 58.4058 68.0168 58.4058 75.896C58.4058 83.7753 58.5672 90.2961 58.7824 90.4048C58.9976 90.5135 60.2351 90.3504 61.5802 89.9701C65.0236 89.1006 68.0367 86.7097 69.4894 83.6123C70.5654 81.33 70.673 80.841 70.7807 74.7549L70.8883 68.3971H81.7566H92.5174V79.2651C92.5174 86.1663 92.6788 90.2418 92.9478 90.4048C93.6473 90.8395 97.9516 89.3723 99.8885 88.0682C101.825 86.7097 103.762 84.1014 104.516 81.8734C104.892 80.841 105 73.7224 105 57.2031V34L103.44 34.2717C99.2967 34.9781 95.369 38.0755 93.6473 41.988C92.9478 43.5638 92.7864 45.031 92.625 50.0846L92.4636 56.2793H81.7028H70.9421V45.1397V34L69.3818 34.2717C67.2834 34.6521 64.2704 35.9562 63.0867 37.0974C62.5487 37.5864 57.9215 43.0748 52.7564 49.3238C47.645 55.5186 43.2869 60.6265 43.0717 60.6265C42.9103 60.6265 39.3592 56.4967 35.2163 51.3888C24.4018 38.1842 22.9491 36.6083 20.5279 35.5215C19.3442 34.9781 17.7301 34.4347 16.8692 34.326L15.2551 34V40.9555Z" fill="black"/>
<path d="M18.8468 72.6067C14.3339 74.0979 12.5939 78.6709 15.2582 82.2C16.6175 83.9894 18.4118 84.8344 20.8586 84.8344C26.894 84.8344 30.0476 78.3726 25.9696 74.3961C24.0666 72.5073 21.2392 71.8114 18.8468 72.6067Z" fill="black"/>
<circle cx="60" cy="60" r="58" stroke="black" stroke-width="4"/>
</svg>
