<svg width="140" height="146" viewBox="0 0 140 146" fill="none" xmlns="http://www.w3.org/2000/svg">
<mask id="path-1-inside-1_347_400" fill="white">
<path d="M58.6628 0.537964C25.6873 6.79967 1.90898 34.6643 0.114392 69.4168C-1.53065 98.9251 14.6954 127.024 40.4926 139.548C49.316 143.775 55.9709 145.418 66.215 145.888C79.5997 146.514 89.2456 144.557 100.537 139C108.164 135.243 107.491 138.765 107.491 100.804C107.491 69.3385 107.416 67.2252 106.145 66.0511C105.397 65.2684 103.602 64.7205 102.256 64.7205C99.9383 64.7205 98.2933 66.2076 84.7591 80.2965L69.7294 95.9508L64.7943 90.4718C60.7565 86.0103 59.4106 85.071 57.4664 85.071C54.4754 85.071 52.1574 87.4975 52.1574 90.6283C52.1574 92.7416 53.3538 94.3853 59.7844 101.195C70.4772 112.623 69.2808 112.779 84.8339 96.6552L97.0221 83.9752V106.439V128.825L95.0032 129.999C91.1897 131.956 82.8897 134.304 76.4591 135.165C64.8691 136.652 53.0547 134.225 41.3151 127.885C36.6043 125.381 33.6881 122.954 27.7809 116.771C21.2756 110.04 19.8549 107.926 16.7891 101.508C14.9197 97.4379 12.7513 91.9589 12.0783 89.376C10.508 83.1143 9.90985 69.3385 10.9567 62.842C15.0693 38.03 32.3422 18.4621 55.7466 12.2004C66.6637 9.30436 81.6186 10.4784 92.9095 15.1747C95.1528 16.114 97.396 16.5053 98.5176 16.1922C100.985 15.5661 102.63 12.3569 101.957 9.61744C101.359 7.03449 96.5735 4.5298 87.6005 2.02512C80.9456 0.224878 64.7195 -0.636107 58.6628 0.537964Z"/>
</mask>
<path d="M58.6628 0.537964C25.6873 6.79967 1.90898 34.6643 0.114392 69.4168C-1.53065 98.9251 14.6954 127.024 40.4926 139.548C49.316 143.775 55.9709 145.418 66.215 145.888C79.5997 146.514 89.2456 144.557 100.537 139C108.164 135.243 107.491 138.765 107.491 100.804C107.491 69.3385 107.416 67.2252 106.145 66.0511C105.397 65.2684 103.602 64.7205 102.256 64.7205C99.9383 64.7205 98.2933 66.2076 84.7591 80.2965L69.7294 95.9508L64.7943 90.4718C60.7565 86.0103 59.4106 85.071 57.4664 85.071C54.4754 85.071 52.1574 87.4975 52.1574 90.6283C52.1574 92.7416 53.3538 94.3853 59.7844 101.195C70.4772 112.623 69.2808 112.779 84.8339 96.6552L97.0221 83.9752V106.439V128.825L95.0032 129.999C91.1897 131.956 82.8897 134.304 76.4591 135.165C64.8691 136.652 53.0547 134.225 41.3151 127.885C36.6043 125.381 33.6881 122.954 27.7809 116.771C21.2756 110.04 19.8549 107.926 16.7891 101.508C14.9197 97.4379 12.7513 91.9589 12.0783 89.376C10.508 83.1143 9.90985 69.3385 10.9567 62.842C15.0693 38.03 32.3422 18.4621 55.7466 12.2004C66.6637 9.30436 81.6186 10.4784 92.9095 15.1747C95.1528 16.114 97.396 16.5053 98.5176 16.1922C100.985 15.5661 102.63 12.3569 101.957 9.61744C101.359 7.03449 96.5735 4.5298 87.6005 2.02512C80.9456 0.224878 64.7195 -0.636107 58.6628 0.537964Z" fill="#2F2E2E"/>
<path d="M58.6628 0.537964L71.7937 68.277L71.6645 68.3021L71.5352 68.3266L58.6628 0.537964ZM0.114392 69.4168L69.0226 72.9751L69.0153 73.1163L69.0074 73.2574L0.114392 69.4168ZM40.4926 139.548L10.6833 201.777L10.521 201.699L10.3592 201.62L40.4926 139.548ZM66.215 145.888L69.3749 76.9603L69.4072 76.9618L69.4395 76.9633L66.215 145.888ZM100.537 139L131.027 200.898L131.017 200.903L131.007 200.908L100.537 139ZM106.145 66.0511L59.3285 116.739L57.7432 115.275L56.2525 113.714L106.145 66.0511ZM84.7591 80.2965L34.9859 32.5092L34.9925 32.5023L34.9991 32.4955L84.7591 80.2965ZM69.7294 95.9508L119.503 143.738L68.1173 197.259L18.4608 142.13L69.7294 95.9508ZM64.7943 90.4718L115.953 44.1708L116.008 44.2316L116.063 44.2924L64.7943 90.4718ZM59.7844 101.195L109.951 53.8206L110.06 53.9358L110.168 54.0515L59.7844 101.195ZM84.8339 96.6552L134.579 144.471L134.537 144.515L134.495 144.559L84.8339 96.6552ZM97.0221 83.9752L47.2767 36.159L166.022 -87.3771V83.9752H97.0221ZM97.0221 128.825H166.022V168.518L131.709 188.472L97.0221 128.825ZM95.0032 129.999L129.69 189.646L128.12 190.559L126.504 191.389L95.0032 129.999ZM76.4591 135.165L85.6157 203.554L85.4283 203.58L85.2408 203.604L76.4591 135.165ZM41.3151 127.885L73.7078 66.9616L73.9056 67.0668L74.1028 67.1733L41.3151 127.885ZM27.7809 116.771L77.397 68.8204L77.5354 68.9637L77.6731 69.1078L27.7809 116.771ZM16.7891 101.508L-45.4727 131.248L-45.6967 130.779L-45.9136 130.307L16.7891 101.508ZM12.0783 89.376L-54.6926 106.773L-54.7724 106.466L-54.8493 106.16L12.0783 89.376ZM10.9567 62.842L-57.1646 51.865L-57.1399 51.712L-57.1146 51.5592L10.9567 62.842ZM55.7466 12.2004L37.9133 -54.4552L37.9839 -54.4741L38.0545 -54.4928L55.7466 12.2004ZM92.9095 15.1747L119.408 -48.5342L119.483 -48.5029L119.559 -48.4714L92.9095 15.1747ZM98.5176 16.1922L79.9663 -50.2671L80.7536 -50.4869L81.546 -50.688L98.5176 16.1922ZM101.957 9.61744L34.9494 26.0782L34.84 25.6325L34.7364 25.1854L101.957 9.61744ZM87.6005 2.02512L105.618 -64.5809L105.885 -64.5086L106.152 -64.4343L87.6005 2.02512ZM71.5352 68.3266C71.0601 68.4168 70.8244 68.5375 70.7134 68.6025C70.586 68.6771 70.4273 68.7957 70.2441 69.011C69.9447 69.3628 69.1509 70.4901 69.0226 72.9751L-68.7938 65.8584C-65.4336 0.787623 -19.839 -54.7883 45.7905 -67.2507L71.5352 68.3266ZM69.0074 73.2574C68.9541 74.2136 69.1974 75.3607 69.7972 76.4015C70.3999 77.4475 70.8947 77.606 70.626 77.4756L10.3592 201.62C-41.3342 176.525 -71.9175 121.881 -68.7786 65.5761L69.0074 73.2574ZM70.3019 77.3193C71.0381 77.6719 71.1906 77.7121 70.9238 77.6125C70.7874 77.5616 70.5682 77.4841 70.2797 77.3944C69.9894 77.3042 69.6721 77.2152 69.3404 77.1334C69.0092 77.0518 68.7118 76.9892 68.4636 76.9432C68.218 76.8977 68.0585 76.8756 68.0063 76.8688C67.9169 76.8572 68.2938 76.9107 69.3749 76.9603L63.0551 214.816C43.9964 213.942 28.2286 210.181 10.6833 201.777L70.3019 77.3193ZM69.4395 76.9633C70.732 77.0238 71.3193 76.9925 71.401 76.9875C71.4385 76.9851 71.3655 76.9886 71.2016 77.0096C71.0355 77.0309 70.8141 77.0654 70.5532 77.1179C70.2917 77.1705 70.036 77.232 69.7995 77.2976C69.5642 77.3629 69.3901 77.4205 69.2899 77.4559C69.0842 77.5286 69.3023 77.4683 70.0663 77.0923L131.007 200.908C108.685 211.894 87.3653 215.953 62.9905 214.813L69.4395 76.9633ZM70.046 77.1023C71.3735 76.4484 72.4908 75.9331 73.1118 75.6483C74.0425 75.2216 73.6401 75.4067 73.4618 75.4912C73.2201 75.6058 68.065 77.9404 62.2732 82.4804C55.3143 87.9352 49.1935 95.0734 44.7894 103.596C40.8992 111.124 39.5038 117.531 38.9786 120.43C38.4506 123.344 38.3841 125.177 38.4063 124.775C38.4187 124.552 38.457 123.641 38.4807 121.495C38.5313 116.929 38.4905 110.993 38.4905 100.804H176.491C176.491 109.595 176.534 117.454 176.472 123.022C176.424 127.396 176.352 136.285 174.769 145.027C172.613 156.927 166.361 176.233 147.408 191.09C140.607 196.421 134.253 199.394 132.588 200.183C132.021 200.452 131.531 200.678 131.238 200.812C131.087 200.881 130.943 200.947 130.851 200.989C130.745 201.038 130.685 201.065 130.631 201.09C130.424 201.185 130.653 201.082 131.027 200.898L70.046 77.1023ZM38.4905 100.804C38.4905 92.9077 38.4857 87.0732 38.4602 82.6638C38.4337 78.0898 38.3873 75.812 38.3454 74.7253C38.3257 74.2137 38.329 74.5912 38.4099 75.4856C38.476 76.216 38.7183 78.7687 39.4648 82.2038C40.2263 85.7083 41.8914 91.9587 45.7044 99.0977C49.9893 107.12 55.1723 112.9 59.3285 116.739L152.961 15.3633C165.644 27.0777 171.745 41.0589 174.318 52.8996C175.922 60.2837 176.153 67.0725 176.243 69.4111C176.486 75.7101 176.491 85.8578 176.491 100.804H38.4905ZM56.2525 113.714C62.4143 120.164 68.5203 123.977 72.2373 126.015C76.2574 128.219 79.8936 129.655 82.7689 130.606C88.0431 132.349 94.585 133.72 102.256 133.72V-4.27951C111.274 -4.27951 119.386 -2.63428 126.081 -0.421252C131.229 1.2804 144.291 6.09288 156.037 18.388L56.2525 113.714ZM102.256 133.72C105.839 133.72 110.995 133.42 117.02 132.019C123.031 130.622 128.146 128.541 132.274 126.395C136.161 124.374 138.998 122.385 140.606 121.182C142.227 119.97 143.294 119.029 143.627 118.732C144.147 118.269 143.868 118.482 141.979 120.396C140.255 122.142 137.913 124.565 134.519 128.098L34.9991 32.4955C40.8867 26.3666 46.9136 20.0743 51.8009 15.7178C54.1867 13.5911 60.1644 8.34773 68.6218 3.95118C80.0681 -1.99913 91.6884 -4.27951 102.256 -4.27951V133.72ZM134.532 128.084L119.503 143.738L19.9562 48.1635L34.9859 32.5092L134.532 128.084ZM18.4608 142.13L13.5257 136.651L116.063 44.2924L120.998 49.7714L18.4608 142.13ZM13.6355 136.773C12.9792 136.047 13.1235 136.236 13.7324 136.838C14.2443 137.343 16.3406 139.401 19.6282 141.804C23.1751 144.397 28.8675 147.96 36.5944 150.595C44.6729 153.35 51.9756 154.071 57.4664 154.071V16.071C74.3137 16.071 89.1983 21.7209 101.062 30.3927C108.6 35.9022 114.278 42.32 115.953 44.1708L13.6355 136.773ZM57.4664 154.071C95.5212 154.071 121.157 122.599 121.157 90.6283H-16.8426C-16.8426 52.3958 13.4297 16.071 57.4664 16.071V154.071ZM121.157 90.6283C121.157 83.7218 120.024 75.7784 116.917 67.6305C114.213 60.5382 110.917 55.7176 109.486 53.7372C108.056 51.7586 107.058 50.685 107.475 51.1539C107.77 51.4859 108.464 52.2464 109.951 53.8206L9.61798 148.569C7.1252 145.93 1.8839 140.446 -2.36695 134.564C-8.82768 125.623 -16.8426 110.769 -16.8426 90.6283H121.157ZM110.168 54.0515C112.139 56.1584 112.454 56.5156 113.134 57.2256C113.737 57.8555 112.516 56.5113 110.341 54.6887C106.254 51.2638 86.8078 36.1024 58.016 41.3932C46.5983 43.4913 38.6689 48.1122 34.9649 50.5494C31.2846 52.971 29.0871 55.048 29.0048 55.1241C28.756 55.3543 29.0062 55.1355 30.295 53.8119C31.6469 52.4235 32.875 51.1335 35.1724 48.7518L134.495 144.559C131.849 147.303 126.857 152.596 122.719 156.424C120.827 158.175 106.135 172.861 82.9571 177.121C51.1836 182.959 29.0597 166.624 21.7037 160.459C15.8702 155.571 9.63326 148.587 9.40097 148.338L110.168 54.0515ZM35.0885 48.8389L47.2767 36.159L146.767 131.792L134.579 144.471L35.0885 48.8389ZM166.022 83.9752V106.439H28.0221V83.9752H166.022ZM166.022 106.439V128.825H28.0221V106.439H166.022ZM131.709 188.472L129.69 189.646L60.3161 70.3515L62.335 69.1774L131.709 188.472ZM126.504 191.389C113.376 198.125 96.7493 202.064 85.6157 203.554L67.3025 66.775C66.8449 66.8363 66.7949 66.861 67.1313 66.7893C67.435 66.7244 67.7949 66.6358 68.1133 66.5467C68.4634 66.4487 68.4483 66.4386 68.0535 66.5806C67.8406 66.6571 67.3812 66.8269 66.7207 67.1035C66.1016 67.3627 64.971 67.8555 63.5028 68.6089L126.504 191.389ZM85.2408 203.604C57.4662 207.167 31.2166 200.851 8.52745 188.598L74.1028 67.1733C74.68 67.485 74.264 67.1685 72.9094 66.8885C71.4875 66.5946 69.6515 66.4725 67.6775 66.7258L85.2408 203.604ZM8.92249 188.809C-5.18806 181.307 -14.0282 172.895 -22.1112 164.434L77.6731 69.1078C78.795 70.2822 79.3784 70.861 79.632 71.1057C79.8562 71.322 79.5498 71.012 78.8481 70.4343C78.0776 69.8001 77.0937 69.0589 75.9634 68.3154C74.8662 67.5937 74.0319 67.1339 73.7078 66.9616L8.92249 188.809ZM-21.8351 164.721C-25.3665 161.067 -30.4187 155.754 -35.151 149.13C-40.3152 141.9 -43.5192 135.338 -45.4727 131.248L79.0509 71.768C79.3161 72.3232 79.4506 72.5947 79.5049 72.7027C79.5533 72.7988 79.4716 72.6323 79.2861 72.2965C79.0915 71.9441 78.7963 71.4297 78.4072 70.8072C78.0127 70.1761 77.5868 69.5382 77.1413 68.9146C76.2381 67.6502 75.5752 66.8949 75.543 66.8583C75.5411 66.8562 75.6694 67.0017 75.991 67.346C76.3136 67.6914 76.7629 68.1643 77.397 68.8204L-21.8351 164.721ZM-45.9136 130.307C-48.1338 125.473 -52.4257 115.473 -54.6926 106.773L78.8492 71.9793C78.7001 71.407 78.5682 70.9391 78.4685 70.597C78.3675 70.25 78.2819 69.9717 78.2193 69.7726C78.0984 69.388 78.0194 69.1605 78.0054 69.1201C77.9872 69.068 77.9999 69.106 78.0492 69.2388C78.097 69.3674 78.1659 69.5488 78.2557 69.7788C78.4396 70.2497 78.6635 70.8009 78.9029 71.3665C79.1447 71.9379 79.3505 72.4015 79.4918 72.7093L-45.9136 130.307ZM-54.8493 106.16C-57.348 96.1956 -58.123 85.6592 -58.4012 79.1382C-58.6809 72.5836 -58.8017 62.0247 -57.1646 51.865L79.078 73.819C79.2027 73.0446 79.2811 72.4311 79.3291 72.0133C79.3779 71.5884 79.4057 71.2744 79.4207 71.0869C79.4489 70.733 79.4465 70.6417 79.4407 70.8426C79.4354 71.0258 79.4303 71.3484 79.4345 71.7965C79.4386 72.2391 79.4511 72.7346 79.4734 73.2558C79.4956 73.777 79.5253 74.2706 79.5587 74.7093C79.5925 75.1537 79.6246 75.4704 79.6447 75.6461C79.667 75.8402 79.6603 75.738 79.5995 75.3731C79.5674 75.1799 79.511 74.8586 79.4235 74.4263C79.3375 74.0015 79.2028 73.3774 79.006 72.5924L-54.8493 106.16ZM-57.1146 51.5592C-48.8074 1.44017 -13.006 -40.8321 37.9133 -54.4552L73.5799 78.856C75.3019 78.3953 76.8127 77.3971 77.8146 76.2636C78.7897 75.1605 79.0036 74.2721 79.028 74.1248L-57.1146 51.5592ZM38.0545 -54.4928C64.736 -61.5708 95.2102 -58.5989 119.408 -48.5342L66.4109 78.8836C67.5614 79.3621 68.2568 79.531 68.4419 79.5735C68.5644 79.6016 68.633 79.6127 68.6561 79.6162C68.6797 79.6198 68.6947 79.6214 68.713 79.6229C68.7309 79.6243 68.7892 79.6285 68.8992 79.6292C69.0075 79.6299 69.212 79.6274 69.5181 79.6054C70.0376 79.568 71.3909 79.4369 73.4387 78.8936L38.0545 -54.4928ZM119.559 -48.4714C116.55 -49.7313 112.827 -50.9535 108.321 -51.7621C106.042 -52.1711 102.767 -52.6178 98.7395 -52.6912C95.1543 -52.7564 88.2989 -52.5931 79.9663 -50.2671L117.069 82.6516C101.403 87.0247 88.1992 84.8313 83.9471 84.0683C77.4782 82.9075 71.5127 81.02 66.2605 78.8208L119.559 -48.4714ZM81.546 -50.688C58.96 -44.9565 46.0981 -29.4906 40.1895 -18.1213C34.0774 -6.36043 30.8145 9.24568 34.9494 26.0782L168.965 -6.84333C173.773 12.7287 170.024 31.3091 162.641 45.516C155.461 59.3312 140.543 76.7148 115.489 83.0725L81.546 -50.688ZM34.7364 25.1854C38.642 42.0494 47.9056 52.7062 53.2837 57.7983C58.7512 62.975 63.691 65.7479 65.7277 66.8222C69.7267 68.9316 71.7424 69.2363 69.0492 68.4845L106.152 -64.4343C112.432 -62.6813 121.327 -59.872 130.111 -55.2383C134.541 -52.9019 141.35 -48.862 148.163 -42.4109C154.887 -36.0445 164.973 -24.106 169.178 -5.95047L34.7364 25.1854ZM69.5828 68.6311C70.5069 68.8811 71.2268 69.0462 71.683 69.1446C72.1516 69.2458 72.4846 69.3075 72.6578 69.3382C72.9789 69.395 72.9921 69.3882 72.6554 69.3466C72.3433 69.308 71.8719 69.257 71.2617 69.205C70.6582 69.1536 70.0002 69.1082 69.3248 69.0731C68.6484 69.0379 68.0193 69.0164 67.4727 69.0065C66.9161 68.9964 66.5448 69.0001 66.3704 69.0041C66.1596 69.0089 66.4065 69.0099 67.0327 68.9584C67.3626 68.9312 67.9099 68.8803 68.635 68.7879C69.338 68.6983 70.4245 68.5424 71.7937 68.277L45.5319 -67.2011C57.5199 -69.5249 70.4379 -69.0554 76.4899 -68.7408C83.2463 -68.3895 94.9603 -67.464 105.618 -64.5809L69.5828 68.6311Z" fill="black" mask="url(#path-1-inside-1_347_400)"/>
<mask id="path-3-inside-2_347_400" fill="white">
<path d="M111.603 19.2448C110.407 20.0275 100.462 30.1245 89.6194 41.5521L69.8789 62.4506L54.7745 46.718C41.6889 33.0988 39.4457 31.0637 37.4268 31.0637C35.7818 31.0637 34.5854 31.6899 33.5385 33.0988C31.9683 35.1339 31.9683 35.9948 31.9683 70.5908C31.9683 105.187 31.9683 106.048 33.5385 108.083C35.4827 110.666 39.2962 110.901 41.3898 108.474C42.7358 106.909 42.8106 105.108 43.0349 78.5745L43.2592 50.3185L55.5222 63.155C66.1402 74.2695 68.0843 75.9132 70.1032 75.9132C72.1969 75.9132 74.8888 73.4086 93.6572 53.7624L114.893 31.5334L116.613 33.725C121.698 40.2998 125.661 48.8313 128.278 58.8501C130.147 66.051 129.923 81.3922 127.829 89.2194C126.035 95.7159 122.296 104.091 119.155 108.474C115.566 113.562 117.286 118.728 122.52 118.728C125.287 118.728 128.278 114.814 132.54 105.813C143.906 81.7053 142.186 54.2321 128.053 32.3161C122.445 23.628 116.987 17.7576 114.445 17.7576C114.145 17.7576 112.874 18.4621 111.603 19.2448Z"/>
</mask>
<path d="M111.603 19.2448C110.407 20.0275 100.462 30.1245 89.6194 41.5521L69.8789 62.4506L54.7745 46.718C41.6889 33.0988 39.4457 31.0637 37.4268 31.0637C35.7818 31.0637 34.5854 31.6899 33.5385 33.0988C31.9683 35.1339 31.9683 35.9948 31.9683 70.5908C31.9683 105.187 31.9683 106.048 33.5385 108.083C35.4827 110.666 39.2962 110.901 41.3898 108.474C42.7358 106.909 42.8106 105.108 43.0349 78.5745L43.2592 50.3185L55.5222 63.155C66.1402 74.2695 68.0843 75.9132 70.1032 75.9132C72.1969 75.9132 74.8888 73.4086 93.6572 53.7624L114.893 31.5334L116.613 33.725C121.698 40.2998 125.661 48.8313 128.278 58.8501C130.147 66.051 129.923 81.3922 127.829 89.2194C126.035 95.7159 122.296 104.091 119.155 108.474C115.566 113.562 117.286 118.728 122.52 118.728C125.287 118.728 128.278 114.814 132.54 105.813C143.906 81.7053 142.186 54.2321 128.053 32.3161C122.445 23.628 116.987 17.7576 114.445 17.7576C114.145 17.7576 112.874 18.4621 111.603 19.2448Z" fill="#2F2E2E"/>
<path d="M111.603 19.2448L73.8274 -38.496L74.6193 -39.0141L75.425 -39.5102L111.603 19.2448ZM89.6194 41.5521L39.4591 -5.82876L39.5115 -5.88419L39.5639 -5.9395L89.6194 41.5521ZM69.8789 62.4506L120.039 109.831L70.2852 162.504L20.1051 110.237L69.8789 62.4506ZM54.7745 46.718L104.53 -1.08775L104.539 -1.0782L104.548 -1.06866L54.7745 46.718ZM33.5385 33.0988L88.9233 74.2513L88.5496 74.7543L88.1668 75.2504L33.5385 33.0988ZM33.5385 108.083L88.1668 65.9312L88.4191 66.2583L88.6675 66.5883L33.5385 108.083ZM41.3898 108.474L93.71 153.459L93.6702 153.505L93.6304 153.551L41.3898 108.474ZM43.0349 78.5745L112.033 79.1222L112.033 79.14L112.032 79.1578L43.0349 78.5745ZM43.2592 50.3185L-25.7386 49.7707L-24.3878 -120.381L93.1513 2.65537L43.2592 50.3185ZM114.893 31.5334L65.001 -16.1298L120.012 -73.7132L169.175 -11.0633L114.893 31.5334ZM116.613 33.725L170.895 -8.87167L171.046 -8.67958L171.195 -8.48643L116.613 33.725ZM128.278 58.8501L195.038 41.411L195.051 41.4617L195.064 41.5124L128.278 58.8501ZM127.829 89.2194L194.486 107.049L194.413 107.321L194.338 107.592L127.829 89.2194ZM119.155 108.474L62.7736 68.6985L62.9192 68.4921L63.0663 68.2868L119.155 108.474ZM132.54 105.813L194.951 135.237L194.927 135.29L194.902 135.342L132.54 105.813ZM128.053 32.3161L186.025 -5.10408L186.034 -5.09086L186.042 -5.07765L128.053 32.3161ZM149.379 76.9856C151.597 75.5345 153.237 74.2724 153.968 73.7008C154.836 73.0223 155.507 72.4617 155.904 72.1253C156.683 71.4647 157.216 70.9771 157.363 70.843C157.686 70.5474 157.713 70.511 157.297 70.9164C156.53 71.6621 155.222 72.9637 153.378 74.8349C149.755 78.512 144.866 83.5722 139.675 89.0437L39.5639 -5.9395C45.215 -11.8956 50.7197 -17.5978 55.0787 -22.0217C57.226 -24.201 59.3064 -26.2847 61.0797 -28.0094C61.9329 -28.8393 63.0186 -29.8822 64.1566 -30.9244C64.7106 -31.4318 65.5912 -32.2278 66.6525 -33.1278C67.1197 -33.524 69.9548 -35.9624 73.8274 -38.496L149.379 76.9856ZM139.78 88.933L120.039 109.831L19.7187 15.0697L39.4591 -5.82876L139.78 88.933ZM20.1051 110.237L5.00065 94.5047L104.548 -1.06866L119.653 14.6639L20.1051 110.237ZM5.01899 94.5238C1.77654 91.1491 -0.528713 88.7692 -2.24166 87.0366C-4.08316 85.1738 -4.55233 84.7601 -4.2909 84.9962C-4.10706 85.1622 -3.31624 85.8723 -2.07072 86.8433C-0.867981 87.7809 1.43242 89.4923 4.63567 91.3426C7.94273 93.2529 12.7049 95.6003 18.7761 97.383C25.1634 99.2584 31.4789 100.064 37.4268 100.064V-37.9363C67.7585 -37.9363 86.8011 -18.6849 88.1922 -17.4288C92.8686 -13.2064 98.6143 -7.24463 104.53 -1.08775L5.01899 94.5238ZM37.4268 100.064C45.7321 100.064 56.3725 98.3814 67.2544 92.686C77.8945 87.1172 84.8211 79.7722 88.9233 74.2513L-21.8462 -8.0537C-16.6972 -14.9835 -8.64901 -23.346 3.26232 -29.5802C15.4153 -35.9408 27.4764 -37.9363 37.4268 -37.9363V100.064ZM88.1668 75.2504C88.5923 74.6988 91.3901 71.1278 94.0955 65.9813C96.96 60.5322 98.661 55.429 99.6743 51.2646C100.579 47.5462 100.896 44.7199 101.001 43.6783C101.116 42.5461 101.126 41.9899 101.107 42.4571C101.065 43.4877 101.016 45.7958 100.992 50.7638C100.968 55.5304 100.968 61.8683 100.968 70.5908H-37.0317C-37.0317 54.323 -37.0488 43.4323 -36.7777 36.8118C-36.6697 34.1747 -36.3948 26.7808 -34.4129 18.6362C-31.1747 5.32879 -25.1379 -3.80636 -21.0897 -9.05276L88.1668 75.2504ZM100.968 70.5908C100.968 79.3132 100.968 85.6512 100.992 90.4178C101.016 95.3857 101.065 97.6938 101.107 98.7244C101.126 99.1917 101.116 98.6355 101.001 97.5032C100.896 96.4616 100.579 93.6354 99.6743 89.917C98.661 85.7526 96.96 80.6494 94.0955 75.2002C91.3901 70.0538 88.5923 66.4827 88.1668 65.9312L-21.0897 150.234C-25.1379 144.988 -31.1747 135.853 -34.4129 122.545C-36.3948 114.401 -36.6697 107.007 -36.7777 104.37C-37.0488 97.7493 -37.0317 86.8586 -37.0317 70.5908H100.968ZM88.6675 66.5883C65.9525 36.4093 17.7265 30.2786 -10.8507 63.3972L93.6304 153.551C60.8658 191.522 5.01285 184.922 -21.5905 149.577L88.6675 66.5883ZM-10.9303 63.4897C-12.9959 65.8921 -16.2724 70.0562 -19.2959 75.8333C-22.2197 81.42 -23.8469 86.4791 -24.778 90.2236C-25.6442 93.7074 -25.9849 96.3826 -26.1117 97.4927C-26.2481 98.6869 -26.2773 99.3638 -26.2657 99.1496C-26.2367 98.6156 -26.1778 97.0102 -26.1196 93.1727C-26.0641 89.5211 -26.0191 84.6702 -25.9626 77.9911L112.032 79.1578C111.928 91.4671 111.856 100.652 111.532 106.625C111.397 109.108 111.037 115.913 109.144 123.523C106.226 135.26 100.746 145.275 93.71 153.459L-10.9303 63.4897ZM-25.9629 78.0267L-25.7386 49.7707L112.257 50.8663L112.033 79.1222L-25.9629 78.0267ZM93.1513 2.65537L105.414 15.4919L5.63008 110.818L-6.63293 97.9816L93.1513 2.65537ZM105.414 15.4919C107.998 18.1963 109.725 19.9787 110.93 21.1914C112.278 22.5474 112.211 22.4165 111.371 21.6846C110.929 21.2988 106.841 17.6567 100.23 14.2284C96.4966 12.2926 91.7376 10.2959 86.0379 8.87367C80.2055 7.41831 74.787 6.91324 70.1032 6.91324V144.913C42.5559 144.913 25.0504 129.508 20.7033 125.72C15.7669 121.417 10.2867 115.692 5.63008 110.818L105.414 15.4919ZM70.1032 6.91324C62.8251 6.91324 55.5054 8.11056 48.5015 10.5199C42.0993 12.7223 37.3846 15.4519 34.6295 17.2288C31.8976 18.9908 30.0399 20.5057 29.3258 21.1014C28.5375 21.759 28.1675 22.1185 28.3843 21.9149C28.8898 21.4401 30.1987 20.1623 32.964 17.3278C35.6173 14.6081 39.0915 10.9915 43.7651 6.09931L143.549 101.426C134.68 110.71 127.828 117.838 122.87 122.495C120.702 124.532 115.809 129.084 109.426 133.201C101.332 138.421 87.8698 144.913 70.1032 144.913V6.91324ZM43.7651 6.09931L65.001 -16.1298L164.785 79.1965L143.549 101.426L43.7651 6.09931ZM169.175 -11.0633L170.895 -8.87167L62.3311 76.3216L60.6113 74.13L169.175 -11.0633ZM171.195 -8.48643C183.171 6.99971 190.626 24.5241 195.038 41.411L61.5179 76.2892C61.3336 75.5836 61.1627 75.0467 61.0281 74.667C60.8934 74.2866 60.8042 74.0895 60.7882 74.0551C60.772 74.0201 60.842 74.176 61.0302 74.49C61.2183 74.8039 61.5404 75.3021 62.0309 75.9364L171.195 -8.48643ZM195.064 41.5124C198.325 54.0726 198.647 66.9992 198.532 74.8157C198.411 83.034 197.641 95.2533 194.486 107.049L61.1726 71.3894C60.7733 72.8821 60.5865 73.9063 60.5194 74.2974C60.4443 74.7355 60.4304 74.9048 60.444 74.7786C60.4763 74.4798 60.5329 73.7503 60.5471 72.7842C60.5536 72.3388 60.5497 71.9394 60.5399 71.6134C60.53 71.2801 60.5168 71.1132 60.5175 71.1221C60.5184 71.1329 60.5254 71.2177 60.5429 71.3733C60.5602 71.5267 60.5919 71.7862 60.6453 72.1424C60.7364 72.7491 60.9711 74.1828 61.4915 76.1877L195.064 41.5124ZM194.338 107.592C191.001 119.672 184.304 136.017 175.244 148.661L63.0663 68.2868C62.3462 69.2919 61.8504 70.0709 61.5684 70.5298C61.2753 71.0069 61.0937 71.3327 61.014 71.4788C60.8707 71.7415 60.9069 71.6967 61.0566 71.3636C61.1974 71.0502 61.3301 70.7224 61.4229 70.4709C61.5282 70.1857 61.4708 70.3012 61.3201 70.847L194.338 107.592ZM175.537 148.25C182.111 138.931 191.278 118.828 183.058 93.9001C178.79 80.9556 170.2 68.9035 157.697 60.5237C145.43 52.302 132.629 49.7277 122.52 49.7277V187.728C94.271 187.728 63.199 171.079 51.9998 137.117C42.5085 108.335 52.61 83.1053 62.7736 68.6985L175.537 148.25ZM122.52 49.7277C105.971 49.7277 93.2641 55.8064 85.4846 61.1707C78.2696 66.1457 74.0388 71.2981 72.3816 73.4416C69.2815 77.4513 68.5299 79.7641 70.1778 76.2839L194.902 135.342C192.288 140.863 187.91 149.633 181.557 157.85C177.451 163.161 158.05 187.728 122.52 187.728V49.7277ZM70.1284 76.3885C70.898 74.756 71.0471 73.4294 70.9885 72.4758C70.9303 71.5292 70.6525 70.6215 70.0646 69.7098L186.042 -5.07765C213.349 37.2692 216.262 90.0361 194.951 135.237L70.1284 76.3885ZM70.0817 69.7363C68.7047 67.6031 68.4044 67.5173 69.6572 68.8595C70.1578 69.3958 72.5334 71.9354 76.6481 74.8857C78.7487 76.3919 82.5157 78.8856 87.7484 81.1871C92.6274 83.3332 102.019 86.7576 114.445 86.7576V-51.2424C137.869 -51.2424 153.789 -39.6113 157.062 -37.2645C163.09 -32.942 167.657 -28.3918 170.541 -25.3019C176.561 -18.8525 181.794 -11.6591 186.025 -5.10408L70.0817 69.7363ZM114.445 86.7576C120.689 86.7576 125.61 85.899 128.26 85.3548C131.18 84.755 133.526 84.0729 135.059 83.5892C138.055 82.6433 140.328 81.6925 141.428 81.2171C143.71 80.2309 145.345 79.3639 145.838 79.101C147.049 78.4559 147.74 78.0249 147.781 77.9998L75.425 -39.5102C76.737 -40.3181 78.6996 -41.4926 80.9383 -42.6857C81.9457 -43.2225 84.0339 -44.3145 86.678 -45.4573C87.9589 -46.0109 90.3905 -47.0229 93.5187 -48.0103C95.1829 -48.5357 103.483 -51.2424 114.445 -51.2424V86.7576Z" fill="black" mask="url(#path-3-inside-2_347_400)"/>
</svg>
