<svg width="80" height="80" viewBox="0 0 80 80" fill="none" xmlns="http://www.w3.org/2000/svg">
<path d="M71.2587 50.4421C70.7395 50.2714 70.1743 50.3023 69.6772 50.5285C69.18 50.7547 68.7877 51.1595 68.5794 51.6612C68.1201 52.7793 67.5942 53.8692 67.0046 54.9254C66.601 55.6475 66.1715 56.3477 65.7162 57.0257C62.8529 61.2828 58.9553 64.7562 54.3828 67.1255C54.245 67.1963 54.089 67.2247 53.9349 67.2071C53.7807 67.1895 53.6354 67.1267 53.5174 67.0267C53.3994 66.9268 53.3141 66.7941 53.2725 66.6458C53.2309 66.4975 53.2348 66.3403 53.2837 66.1942L59.8946 46.5685L64.7325 32.2125C64.8285 31.9274 64.867 31.6263 64.8457 31.3264C64.8244 31.0266 64.7438 30.7338 64.6084 30.4649C64.4731 30.196 64.2856 29.9561 64.0568 29.7591C63.8279 29.5621 63.5622 29.4117 63.2748 29.3166L57.1486 27.2859C56.8612 27.1906 56.5577 27.1524 56.2555 27.1736C55.9532 27.1947 55.6581 27.2747 55.3871 27.409C55.116 27.5433 54.8743 27.7292 54.6757 27.9563C54.4771 28.1833 54.3255 28.4469 54.2296 28.7321L51.8872 35.6678C51.7914 35.953 51.6398 36.2166 51.4412 36.4436C51.2426 36.6707 51.0009 36.8566 50.7298 36.9909C50.4587 37.1252 50.1636 37.2052 49.8614 37.2263C49.5591 37.2475 49.2557 37.2093 48.9683 37.114L41.9286 34.7776L34.7879 32.4109C34.5007 32.3156 34.2351 32.1651 34.0065 31.968C33.7779 31.7709 33.5906 31.531 33.4554 31.2621C33.3202 30.9932 33.2397 30.7005 33.2186 30.4007C33.1974 30.101 33.236 29.8 33.3321 29.515L39.4799 11.2675C39.6386 10.7931 39.9498 10.3836 40.3658 10.1017C40.7818 9.81976 41.2795 9.68109 41.7826 9.70693C43.7712 9.81395 45.7446 10.1133 47.6746 10.6007C48.2426 10.7466 48.8453 10.6726 49.3603 10.3938C49.8753 10.1149 50.264 9.65202 50.4476 9.09915L52.0188 4.37996C52.1096 4.10337 52.1427 3.81135 52.1162 3.52166C52.0896 3.23197 52.004 2.95067 51.8644 2.69484C51.7249 2.43902 51.5343 2.21402 51.3044 2.03354C51.0745 1.85306 50.8099 1.72086 50.5269 1.64498C41.9664 -0.629086 32.8879 -0.028214 24.7077 3.35385C16.5275 6.73591 9.70573 12.709 5.3065 20.3412C4.94613 20.9764 4.59718 21.6247 4.25964 22.2861C3.40985 23.9747 2.6813 25.7207 2.07943 27.5111C2.05961 27.5737 2.03799 27.6345 2.01817 27.6899C1.4499 29.405 0.998423 31.156 0.666799 32.9311C0.519049 33.7319 0.395324 34.5327 0.295623 35.3336C-0.125638 38.7471 -0.0965637 42.2006 0.382111 45.6067C1.45258 53.1772 4.68576 60.2853 9.69934 66.0905C14.4212 71.5532 20.5518 75.6389 27.4347 77.91L27.6149 77.9707C36.3722 80.8334 45.856 80.6174 54.4716 77.359C63.0873 74.1006 70.3094 67.9986 74.9236 60.0789C75.3308 59.3794 75.7176 58.6644 76.0839 57.9338C76.5813 56.9411 77.0395 55.9228 77.4587 54.8789C77.5668 54.6082 77.6181 54.3185 77.6096 54.0275C77.6012 53.7365 77.5331 53.4502 77.4095 53.1861C77.2859 52.9221 77.1095 52.6857 76.8909 52.4915C76.6723 52.2972 76.4161 52.1492 76.138 52.0563L71.2587 50.4421ZM40.6673 68.9828C40.508 69.4592 40.1948 69.8701 39.7762 70.1519C39.3576 70.4337 38.857 70.5707 38.3519 70.5416C35.7071 70.3846 33.0938 69.8889 30.5771 69.0668L30.4365 69.0204C24.0412 66.9012 18.5262 62.7538 14.7418 57.2174C10.9575 51.6811 9.11405 45.0635 9.49574 38.3849C9.54258 37.571 9.62367 36.7559 9.73898 35.9395C9.99463 34.1316 10.4131 32.35 10.9894 30.6162C11.0039 30.5697 11.0201 30.5232 11.0363 30.4767C11.6386 28.6819 12.4076 26.9464 13.3336 25.2928C13.694 24.6397 14.082 24.0039 14.4976 23.3854C16.4916 20.3752 19.0103 17.7415 21.9355 15.6077C23.3014 14.6101 24.7477 13.7259 26.2599 12.9639C26.3896 12.8987 26.5359 12.8732 26.6802 12.8905C26.8245 12.9079 26.9604 12.9673 27.0707 13.0612C27.1811 13.1551 27.2608 13.2794 27.2999 13.4183C27.3391 13.5572 27.3358 13.7045 27.2906 13.8416L20.5932 33.748L15.6994 48.2738C15.6034 48.5589 15.5649 48.86 15.5862 49.1598C15.6074 49.4597 15.6881 49.7524 15.8234 50.0214C15.9588 50.2903 16.1463 50.5301 16.3751 50.7272C16.6039 50.9242 16.8697 51.0746 17.1571 51.1697L22.9644 53.0949C23.252 53.1898 23.5556 53.2275 23.8579 53.2059C24.1602 53.1843 24.4553 53.1038 24.7262 52.969C24.9971 52.8342 25.2386 52.6477 25.4369 52.4203C25.6351 52.1928 25.7862 51.9288 25.8815 51.6434L28.2906 44.4931C28.3866 44.2081 28.5383 43.9447 28.737 43.7178C28.9357 43.491 29.1774 43.3052 29.4485 43.1711C29.7195 43.037 30.0146 42.9571 30.3167 42.9361C30.6189 42.9151 30.9223 42.9534 31.2095 43.0487L38.4006 45.4333L45.3917 47.7572C45.9714 47.9497 46.4504 48.3626 46.7234 48.9053C46.9964 49.4479 47.0411 50.076 46.8475 50.6513L40.6673 68.9828Z" fill="white"/>
<path d="M61.0398 13.4338L62.5461 14.4174C62.5888 14.4459 62.6206 14.4878 62.6363 14.5363C62.6519 14.5847 62.6505 14.637 62.6324 14.6846C62.4346 15.2011 62.5886 15.6976 63.0943 16.1741C63.5293 16.5828 63.8564 16.6748 64.0775 16.4465C64.1334 16.3933 64.174 16.3265 64.1952 16.2529C64.2163 16.1793 64.2173 16.1014 64.198 16.0273C64.1197 15.7801 63.998 15.5484 63.8385 15.3426C63.0308 14.2234 62.6336 13.3813 62.6467 12.8164C62.6507 12.2709 62.8698 11.7482 63.2579 11.3587C63.495 11.106 63.7867 10.9089 64.1114 10.7818C64.4362 10.6547 64.7858 10.601 65.1344 10.6245C65.875 10.6587 66.6234 11.032 67.3795 11.7444C68.458 12.7563 68.8049 13.8431 68.4202 15.0048C68.41 15.0356 68.3932 15.0638 68.3709 15.0876C68.3485 15.1114 68.3212 15.1301 68.2908 15.1426C68.2604 15.155 68.2277 15.1608 68.1948 15.1596C68.1619 15.1584 68.1297 15.1503 68.1003 15.1357L66.6623 14.4157C66.6152 14.3919 66.5779 14.3529 66.5566 14.3052C66.5353 14.2575 66.5314 14.204 66.5455 14.1538C66.6653 13.7104 66.5245 13.2976 66.1231 12.9155C65.7456 12.5617 65.446 12.4992 65.2243 12.728C65.1779 12.7734 65.144 12.8297 65.1258 12.8916C65.1075 12.9535 65.1056 13.0189 65.1201 13.0818C65.1956 13.309 65.3099 13.522 65.458 13.7116C65.8591 14.2609 66.2195 14.8379 66.5365 15.4382C66.7197 15.8193 66.7823 16.2458 66.7162 16.6624C66.6456 17.1146 66.4302 17.5329 66.1015 17.8565C65.8481 18.1271 65.5315 18.3329 65.1792 18.4562C64.8269 18.5794 64.4494 18.6165 64.0793 18.5641C63.2777 18.4757 62.4987 18.0776 61.7426 17.37C60.4448 16.1458 60.1063 14.8609 60.727 13.5152C60.7419 13.4894 60.7619 13.4668 60.7858 13.4487C60.8096 13.4306 60.8369 13.4174 60.866 13.4098C60.8952 13.4023 60.9255 13.4005 60.9554 13.4046C60.9852 13.4087 61.0139 13.4186 61.0398 13.4338Z" fill="white"/>
<path d="M76.0835 24.3743L68.5376 25.9594C68.49 25.9692 68.4404 25.9637 68.3961 25.9437C68.3518 25.9236 68.3149 25.89 68.2909 25.8478L67.2623 24.0014C67.2394 23.9591 67.2303 23.9107 67.2361 23.8629C67.2419 23.8152 67.2624 23.7704 67.2947 23.7348L72.5673 18.0642C72.5919 18.0392 72.622 18.0202 72.6552 18.0087C72.6883 17.9972 72.7237 17.9935 72.7585 17.9979C72.7934 18.0022 72.8267 18.0145 72.856 18.0338C72.8853 18.0532 72.9098 18.079 72.9276 18.1092L73.9219 19.8944C73.9457 19.938 73.9549 19.9882 73.9481 20.0375C73.9413 20.0868 73.9189 20.1326 73.8841 20.1682L70.8902 23.1998C70.8567 23.2354 70.8355 23.2808 70.8299 23.3293C70.8242 23.3779 70.8344 23.427 70.8589 23.4693C70.8834 23.5116 70.9209 23.5448 70.9658 23.5641C71.0107 23.5834 71.0606 23.5877 71.1082 23.5763L75.2639 22.618C75.3124 22.6066 75.3632 22.6114 75.4087 22.6315C75.4542 22.6517 75.4919 22.6861 75.5161 22.7297L76.2367 24.032C76.2556 24.0636 76.2666 24.0992 76.2688 24.136C76.271 24.1727 76.2643 24.2094 76.2492 24.243C76.2342 24.2766 76.2113 24.3061 76.1825 24.3289C76.1536 24.3518 76.1197 24.3673 76.0835 24.3743Z" fill="white"/>
<path d="M78.1902 30.7777L71.162 32.7446C71.1043 32.7606 71.0426 32.753 70.9904 32.7235C70.9382 32.694 70.8998 32.645 70.8836 32.5873L70.366 30.7295C70.3579 30.7007 70.3555 30.6706 70.359 30.6409C70.3625 30.6112 70.3718 30.5825 70.3864 30.5564C70.401 30.5303 70.4205 30.5074 70.444 30.4889C70.4675 30.4704 70.4943 30.4568 70.5231 30.4487L77.5495 28.4819C77.6075 28.4659 77.6694 28.4734 77.7219 28.5029C77.7744 28.5323 77.8131 28.5813 77.8297 28.6392L78.3473 30.4988C78.3632 30.5566 78.3556 30.6185 78.3262 30.6707C78.2968 30.723 78.2479 30.7615 78.1902 30.7777Z" fill="white"/>
<path d="M77.4513 38.394L71.9213 38.8135C71.8912 38.816 71.8608 38.8125 71.8321 38.8034C71.8033 38.7942 71.7766 38.7795 71.7536 38.76C71.7306 38.7406 71.7118 38.7169 71.6981 38.6902C71.6844 38.6636 71.6761 38.6345 71.6738 38.6047L71.5319 36.8003C71.5274 36.7397 71.5472 36.6798 71.5871 36.6336C71.6269 36.5874 71.6836 36.5586 71.7448 36.5536L77.2748 36.134C77.3358 36.1294 77.3925 36.101 77.4324 36.0551C77.4723 36.0092 77.4922 35.9495 77.4877 35.8891L77.3985 34.7276C77.396 34.6976 77.3996 34.6675 77.409 34.6389C77.4184 34.6103 77.4334 34.5839 77.4532 34.5611C77.473 34.5383 77.4972 34.5196 77.5244 34.5062C77.5515 34.4927 77.5811 34.4847 77.6114 34.4827L79.0362 34.3747C79.0975 34.3702 79.158 34.3898 79.2047 34.4292C79.2514 34.4687 79.2804 34.5248 79.2855 34.5853L79.6768 39.6275C79.6813 39.6879 79.6614 39.7476 79.6215 39.7935C79.5816 39.8394 79.5249 39.8678 79.4639 39.8724L78.0372 39.9804C78.007 39.9829 77.9765 39.9794 77.9476 39.9701C77.9187 39.9608 77.892 39.9459 77.869 39.9263C77.846 39.9067 77.8271 39.8828 77.8135 39.8559C77.7999 39.829 77.7918 39.7997 77.7898 39.7697L77.6988 38.61C77.6972 38.5797 77.6894 38.5499 77.6761 38.5225C77.6627 38.4952 77.6439 38.4707 77.6209 38.4506C77.5978 38.4304 77.571 38.4151 77.5419 38.4054C77.5127 38.3956 77.4819 38.3918 77.4513 38.394Z" fill="white"/>
</svg>
