<svg width="70" height="70" viewBox="0 0 70 70" fill="none" xmlns="http://www.w3.org/2000/svg">
<mask id="path-1-inside-1_352_378" fill="white">
<path d="M29.3314 0.257005C12.8436 3.24798 0.95449 16.5578 0.057196 33.1578C-0.765323 47.2528 7.34771 60.6748 20.2463 66.6567C24.658 68.6756 27.9855 69.4608 33.1075 69.6851C39.7998 69.9842 44.6228 69.0495 50.2682 66.395C54.0817 64.6004 53.7453 66.2829 53.7453 48.1501C53.7453 33.1204 53.7079 32.1109 53.0723 31.5501C52.6984 31.1762 51.8011 30.9145 51.1282 30.9145C49.9692 30.9145 49.1466 31.6249 42.3795 38.3546L34.8647 45.832L32.3972 43.2149C30.3782 41.0839 29.7053 40.6352 28.7332 40.6352C27.2377 40.6352 26.0787 41.7942 26.0787 43.2897C26.0787 44.2992 26.6769 45.0843 29.8922 48.337C35.2386 53.7955 34.6404 53.8703 42.4169 46.1685L48.511 40.1118V50.8419V61.5347L47.5016 62.0955C45.5948 63.0302 41.4449 64.1518 38.2296 64.5631C32.4345 65.2734 26.5274 64.1144 20.6576 61.086C18.3022 59.8896 16.8441 58.7306 13.8905 55.777C10.6378 52.5617 9.92743 51.5523 8.39455 48.4865C7.45987 46.5424 6.37564 43.9253 6.03915 42.6915C5.25402 39.7005 4.95492 33.1204 5.47834 30.0172C7.53464 18.1655 16.1711 8.81868 27.8733 5.8277C33.3318 4.44438 40.8093 5.00518 46.4548 7.24842C47.5764 7.69707 48.698 7.884 49.2588 7.73445C50.4926 7.43535 51.3151 5.90248 50.9786 4.59392C50.6795 3.36015 48.2867 2.16375 43.8003 0.967363C40.4728 0.107456 32.3598 -0.303803 29.3314 0.257005Z"/>
</mask>
<path d="M29.3314 0.257005C12.8436 3.24798 0.95449 16.5578 0.057196 33.1578C-0.765323 47.2528 7.34771 60.6748 20.2463 66.6567C24.658 68.6756 27.9855 69.4608 33.1075 69.6851C39.7998 69.9842 44.6228 69.0495 50.2682 66.395C54.0817 64.6004 53.7453 66.2829 53.7453 48.1501C53.7453 33.1204 53.7079 32.1109 53.0723 31.5501C52.6984 31.1762 51.8011 30.9145 51.1282 30.9145C49.9692 30.9145 49.1466 31.6249 42.3795 38.3546L34.8647 45.832L32.3972 43.2149C30.3782 41.0839 29.7053 40.6352 28.7332 40.6352C27.2377 40.6352 26.0787 41.7942 26.0787 43.2897C26.0787 44.2992 26.6769 45.0843 29.8922 48.337C35.2386 53.7955 34.6404 53.8703 42.4169 46.1685L48.511 40.1118V50.8419V61.5347L47.5016 62.0955C45.5948 63.0302 41.4449 64.1518 38.2296 64.5631C32.4345 65.2734 26.5274 64.1144 20.6576 61.086C18.3022 59.8896 16.8441 58.7306 13.8905 55.777C10.6378 52.5617 9.92743 51.5523 8.39455 48.4865C7.45987 46.5424 6.37564 43.9253 6.03915 42.6915C5.25402 39.7005 4.95492 33.1204 5.47834 30.0172C7.53464 18.1655 16.1711 8.81868 27.8733 5.8277C33.3318 4.44438 40.8093 5.00518 46.4548 7.24842C47.5764 7.69707 48.698 7.884 49.2588 7.73445C50.4926 7.43535 51.3151 5.90248 50.9786 4.59392C50.6795 3.36015 48.2867 2.16375 43.8003 0.967363C40.4728 0.107456 32.3598 -0.303803 29.3314 0.257005Z" fill="white"/>
<path d="M29.3314 0.257005L41.8956 68.1035L41.7715 68.1264L41.6474 68.1489L29.3314 0.257005ZM0.057196 33.1578L68.9566 36.8821L68.9486 37.0298L68.94 37.1775L0.057196 33.1578ZM20.2463 66.6567L-8.46625 129.399L-8.62517 129.326L-8.78372 129.253L20.2463 66.6567ZM33.1075 69.6851L36.1265 0.75118L36.1574 0.752531L36.1882 0.753911L33.1075 69.6851ZM50.2682 66.395L79.6482 128.828L79.6383 128.832L79.6283 128.837L50.2682 66.395ZM53.0723 31.5501L7.4204 83.2889L5.80513 81.8637L4.28192 80.3405L53.0723 31.5501ZM42.3795 38.3546L-6.28901 -10.5573L-6.28225 -10.564L-6.27549 -10.5707L42.3795 38.3546ZM34.8647 45.832L83.5333 94.7439L33.2871 144.74L-15.339 93.1669L34.8647 45.832ZM32.3972 43.2149L82.4879 -4.23944L82.5444 -4.17976L82.6008 -4.11995L32.3972 43.2149ZM29.8922 48.337L78.9638 -0.17054L79.0754 -0.0576763L79.1864 0.0556998L29.8922 48.337ZM42.4169 46.1685L91.0569 95.1088L91.014 95.1514L90.971 95.194L42.4169 46.1685ZM48.511 40.1118L-0.128967 -8.82846L117.511 -125.747V40.1118H48.511ZM48.511 61.5347H117.511V102.135L82.0204 121.852L48.511 61.5347ZM47.5016 62.0955L81.011 122.412L79.4627 123.272L77.8724 124.052L47.5016 62.0955ZM38.2296 64.5631L46.9838 133.005L46.8044 133.028L46.6248 133.05L38.2296 64.5631ZM20.6576 61.086L51.9053 -0.432903L52.0999 -0.334027L52.294 -0.233921L20.6576 61.086ZM13.8905 55.777L62.398 6.70548L62.5398 6.84567L62.6808 6.98668L13.8905 55.777ZM8.39455 48.4865L-53.3209 79.3443L-53.5601 78.8659L-53.7919 78.3839L8.39455 48.4865ZM6.03915 42.6915L-60.5296 60.8466L-60.6162 60.529L-60.6998 60.2105L6.03915 42.6915ZM5.47834 30.0172L-62.5606 18.5408L-62.5336 18.3813L-62.506 18.2219L5.47834 30.0172ZM27.8733 5.8277L10.7868 -61.0233L10.8548 -61.0406L10.9228 -61.0579L27.8733 5.8277ZM46.4548 7.24842L71.9342 -56.8749L72.0075 -56.8458L72.0807 -56.8165L46.4548 7.24842ZM49.2588 7.73445L31.4801 -58.9358L32.239 -59.1381L33.0024 -59.3232L49.2588 7.73445ZM50.9786 4.59392L-15.8474 21.7778L-15.9664 21.3148L-16.0791 20.8503L50.9786 4.59392ZM43.8003 0.967363L61.0645 -65.8379L61.322 -65.7714L61.579 -65.7028L43.8003 0.967363ZM41.6474 68.1489C56.0235 65.541 68.0972 52.7805 68.9566 36.8821L-68.8422 29.4335C-66.1883 -19.6648 -30.3363 -59.0451 17.0154 -67.6349L41.6474 68.1489ZM68.94 37.1775C69.7913 22.5896 61.7102 9.82718 49.2763 4.06075L-8.78372 129.253C-47.0148 111.522 -71.3219 71.9159 -68.8256 29.1381L68.94 37.1775ZM48.9589 3.91449C48.1206 3.53087 45.6775 2.49393 42.2315 1.68218C38.8832 0.89342 36.4848 0.766871 36.1265 0.75118L30.0885 138.619C16.5692 138.027 4.46208 135.315 -8.46625 129.399L48.9589 3.91449ZM36.1882 0.753911C35.5031 0.723289 32.8047 0.667644 29.0585 1.38757C25.1962 2.12982 22.3184 3.29009 20.9082 3.95317L79.6283 128.837C63.2164 136.554 47.1715 139.383 30.0268 138.616L36.1882 0.753911ZM20.8883 3.96254C21.0756 3.87436 26.2814 1.51969 23.0408 2.98764C22.5024 3.23157 17.0991 5.585 11.0613 10.1064C3.82571 15.5247 -2.77595 22.7833 -7.64573 31.7859C-11.9923 39.8213 -13.6598 46.8771 -14.3552 50.5449C-15.4606 56.3743 -15.2935 60.7384 -15.2571 57.5989C-15.2352 55.703 -15.2547 53.4152 -15.2547 48.1501H122.745C122.745 51.9513 122.768 56.253 122.734 59.1976C122.714 60.8986 122.727 68.3542 121.229 76.2538C120.337 80.9568 118.414 88.7925 113.734 97.4434C108.531 107.062 101.52 114.771 93.7794 120.568C87.2368 125.467 81.2343 128.125 79.9843 128.691C79.2839 129.009 78.3233 129.426 78.6215 129.296C78.6228 129.295 78.6529 129.282 78.7006 129.261C78.7492 129.239 78.8207 129.207 78.9097 129.167C79.0885 129.087 79.3419 128.972 79.6482 128.828L20.8883 3.96254ZM-15.2547 48.1501C-15.2547 44.3616 -15.2573 41.687 -15.2692 39.7127C-15.2823 37.5662 -15.3038 37.0318 -15.2968 37.2054C-15.292 37.3256 -15.256 38.241 -15.1279 39.5934C-15.0158 40.7774 -14.7041 43.7536 -13.8358 47.5712C-12.9453 51.4858 -11.0789 58.0814 -6.94294 65.4792C-2.3401 73.7122 3.14586 79.5173 7.4204 83.2889L98.7242 -20.1887C103.158 -16.2768 108.784 -10.3175 113.51 -1.86329C117.77 5.75574 119.744 12.6396 120.727 16.9626C122.368 24.1763 122.545 30.4981 122.591 31.6431C122.751 35.6139 122.745 41.4587 122.745 48.1501H-15.2547ZM4.28192 80.3405C10.6594 86.7179 16.9271 90.445 20.689 92.4155C24.7841 94.5605 28.4929 95.9605 31.4344 96.8894C36.8698 98.6058 43.5015 99.9145 51.1282 99.9145V-38.0855C59.4277 -38.0855 66.8446 -36.6459 72.9904 -34.7051C77.4801 -33.2873 90.1604 -28.9425 101.863 -17.2402L4.28192 80.3405ZM51.1282 99.9145C54.6767 99.9145 59.7385 99.6315 65.6581 98.3167C71.5766 97.0021 76.6874 95.0287 80.9144 92.9295C88.2415 89.2907 92.9437 85.1965 93.5922 84.6442C94.737 83.6694 95.2551 83.1308 94.4197 83.9392C93.7515 84.5858 92.7363 85.5876 91.0346 87.2799L-6.27549 -10.5707C-3.78539 -13.0471 0.388936 -17.2438 4.12152 -20.4224C5.9665 -21.9935 11.5146 -26.6858 19.5333 -30.6681C30.3988 -36.0641 41.3433 -38.0855 51.1282 -38.0855V99.9145ZM91.0481 87.2665L83.5333 94.7439L-13.8038 -3.07983L-6.28901 -10.5573L91.0481 87.2665ZM-15.339 93.1669L-17.8065 90.5498L82.6008 -4.11995L85.0684 -1.50284L-15.339 93.1669ZM-17.6936 90.6693C-17.8334 90.5217 -17.2441 91.1552 -16.2436 92.0992C-15.3334 92.958 -12.9033 95.2041 -9.3308 97.6987C-5.48875 100.382 0.34296 103.831 8.05999 106.345C16.0758 108.957 23.2841 109.635 28.7332 109.635V-28.3648C44.3104 -28.3648 58.3633 -23.3463 69.676 -15.4469C76.7188 -10.5291 81.7943 -4.97157 82.4879 -4.23944L-17.6936 90.6693ZM28.7332 109.635C65.3454 109.635 95.0787 79.9019 95.0787 43.2897H-42.9213C-42.9213 3.68658 -10.8699 -28.3648 28.7332 -28.3648V109.635ZM95.0787 43.2897C95.0787 35.7346 93.7833 27.1801 90.3067 18.4693C87.2854 10.8995 83.5812 5.68839 81.8099 3.34672C80.0224 0.983528 78.5836 -0.545938 78.4796 -0.657892C78.2452 -0.910075 78.2834 -0.858803 78.9638 -0.17054L-19.1794 96.8445C-20.0276 95.9864 -24.4285 91.6504 -28.2505 86.5976C-34.3197 78.5739 -42.9213 63.7951 -42.9213 43.2897H95.0787ZM79.1864 0.0556998C83.0073 3.9568 79.5775 0.276045 76.1339 -2.48086C70.8857 -6.68239 51.4482 -20.712 23.3128 -15.7729C11.9899 -13.7852 3.89133 -9.35749 -0.274751 -6.73869C-4.38422 -4.15547 -7.08553 -1.77619 -7.76272 -1.17769C-8.57236 -0.462134 -9.348 0.322994 -6.13717 -2.85697L90.971 95.194C90.2936 95.865 86.6765 99.5289 83.6248 102.226C82.6007 103.131 68.9127 116.332 47.1737 120.149C17.5475 125.349 -3.22894 110.759 -10.1116 105.249C-13.5496 102.497 -16.1445 99.9147 -17.0915 98.9696C-17.9519 98.1111 -19.3849 96.6357 -19.402 96.6183L79.1864 0.0556998ZM-6.22309 -2.77173L-0.128967 -8.82846L97.1511 89.0521L91.0569 95.1088L-6.22309 -2.77173ZM117.511 40.1118V50.8419H-20.489V40.1118H117.511ZM117.511 50.8419V61.5347H-20.489V50.8419H117.511ZM82.0204 121.852L81.011 122.412L13.9922 1.77864L15.0017 1.21783L82.0204 121.852ZM77.8724 124.052C66.8669 129.447 54.6643 132.023 46.9838 133.005L29.4753 -3.87936C27.4261 -3.61725 26.1899 -3.30841 25.5313 -3.13231C25.0904 -3.01441 24.3305 -2.7991 23.2836 -2.4395C22.4976 -2.16947 20.1812 -1.35634 17.1307 0.138964L77.8724 124.052ZM46.6248 133.05C25.419 135.65 5.64689 130.984 -10.9789 122.406L52.294 -0.233921C47.4078 -2.7548 39.4501 -5.10302 29.8343 -3.92432L46.6248 133.05ZM-10.5902 122.605C-22.2485 116.683 -29.6631 109.804 -34.8999 104.567L62.6808 6.98668C63.6355 7.94135 62.4189 6.63599 60.1498 4.85164C58.8499 3.82947 57.3678 2.77107 55.7349 1.74493C54.1377 0.741208 52.7915 0.0172249 51.9053 -0.432903L-10.5902 122.605ZM-34.6171 104.849C-36.5113 102.976 -40.678 98.8579 -44.7621 93.396C-49.3293 87.288 -52.0936 81.799 -53.3209 79.3443L70.11 17.6288C70.4155 18.2398 68.7729 14.7884 65.7573 10.7554C64.3936 8.93167 63.2303 7.62074 62.6185 6.95682C62.0995 6.39357 61.8802 6.19364 62.398 6.70548L-34.6171 104.849ZM-53.7919 78.3839C-55.0918 75.6801 -58.467 68.4091 -60.5296 60.8466L72.6079 24.5364C72.2512 23.2285 71.9297 22.2198 71.739 21.6404C71.5341 21.0181 71.3634 20.5383 71.2536 20.2367C71.041 19.6529 70.8971 19.2992 70.8598 19.208C70.8075 19.0803 70.7558 18.953 70.581 18.5892L-53.7919 78.3839ZM-60.6998 60.2105C-62.9587 51.605 -63.486 43.4434 -63.6632 39.4749C-63.8417 35.4781 -64.0401 27.3124 -62.5606 18.5408L73.5172 41.4937C74.1177 37.934 74.1884 35.4615 74.2032 34.9739C74.229 34.1211 74.2114 33.5883 74.1993 33.318C74.1873 33.0479 74.1573 32.5158 74.0555 31.6676C73.9991 31.1967 73.7062 28.7083 72.7781 25.1725L-60.6998 60.2105ZM-62.506 18.2219C-55.7962 -20.4509 -27.1948 -51.3155 10.7868 -61.0233L44.9598 72.6787C59.537 68.9529 70.8655 56.7819 73.4627 41.8126L-62.506 18.2219ZM10.9228 -61.0579C31.4659 -66.264 53.7833 -64.0871 71.9342 -56.8749L20.9753 71.3717C25.5638 73.1949 29.2551 73.7812 31.8623 73.9795C34.3307 74.1672 38.8073 74.238 44.8238 72.7133L10.9228 -61.0579ZM72.0807 -56.8165C68.6155 -58.2026 64.4986 -59.4739 59.7256 -60.2922C57.3133 -60.7057 53.9725 -61.1348 49.9416 -61.2049C46.3459 -61.2674 39.6224 -61.107 31.4801 -58.9358L67.0375 74.4047C52.2655 78.3439 40.0311 76.3447 36.4086 75.7237C30.6541 74.7372 25.4156 73.148 20.8288 71.3133L72.0807 -56.8165ZM33.0024 -59.3232C10.6199 -53.8971 -3.11835 -38.9042 -9.90427 -26.4301C-16.7933 -13.7664 -20.5824 3.36398 -15.8474 21.7778L117.805 -12.5899C122.876 7.13242 118.844 25.6835 111.319 39.5156C103.898 53.158 89.1315 69.0669 65.5152 74.7921L33.0024 -59.3232ZM-16.0791 20.8503C-11.7623 38.6569 -1.61464 49.7003 4.07567 54.8473C9.95531 60.1655 15.3663 63.1039 17.9095 64.3855C20.7862 65.8351 23.0261 66.6597 24.0651 67.0218C25.2078 67.42 25.9214 67.6109 26.0215 67.6376L61.579 -65.7028C65.5285 -64.6497 72.5551 -62.6088 80.0098 -58.8523C83.7495 -56.9678 90.0952 -53.4242 96.6478 -47.4973C103.011 -41.7416 113.57 -30.0859 118.036 -11.6625L-16.0791 20.8503ZM26.536 67.7726C28.581 68.3011 30.1193 68.5786 30.8328 68.6994C31.642 68.8364 32.206 68.9075 32.4668 68.9383C32.7513 68.9719 32.916 68.9858 32.963 68.9896C32.9936 68.9921 33.0112 68.9933 33.0178 68.9937C33.0246 68.9941 33.0281 68.9943 33.0307 68.9945C33.0333 68.9946 33.0423 68.995 33.06 68.9956C33.0775 68.9962 33.1122 68.9973 33.1658 68.9982C33.2548 68.9997 33.5013 69.0029 33.8986 68.9942C34.261 68.9864 35.024 68.9631 36.0953 68.8789C37.0088 68.8071 39.1134 68.6187 41.8956 68.1035L16.7672 -67.5895C26.8619 -69.4588 36.6702 -68.9949 39.8766 -68.8356C43.7496 -68.6433 52.3537 -68.089 61.0645 -65.8379L26.536 67.7726Z" fill="white" mask="url(#path-1-inside-1_352_378)"/>
<mask id="path-3-inside-2_352_378" fill="white">
<path d="M55.8015 9.19255C55.2033 9.56643 50.2308 14.3894 44.8097 19.8479L34.9395 29.8303L27.3872 22.3155C20.8445 15.8101 19.7229 14.838 18.7134 14.838C17.8909 14.838 17.2927 15.1371 16.7693 15.8101C15.9841 16.7822 15.9841 17.1934 15.9841 33.7186C15.9841 50.2437 15.9841 50.655 16.7693 51.6271C17.7413 52.8608 19.6481 52.973 20.6949 51.814C21.3679 51.0663 21.4053 50.2064 21.5174 37.5321L21.6296 24.0353L27.7611 30.1668C33.0701 35.4758 34.0422 36.2609 35.0516 36.2609C36.0985 36.2609 37.4444 35.0645 46.8286 25.6803L57.4466 15.0623L58.3065 16.1092C60.8488 19.2497 62.8303 23.3249 64.1389 28.1105C65.0736 31.5501 64.9614 38.878 63.9146 42.6167C63.0173 45.7199 61.1479 49.7203 59.5776 51.814C57.7831 54.2442 58.643 56.7117 61.2601 56.7117C62.6434 56.7117 64.1389 54.8424 66.27 50.5428C71.9528 39.0276 71.0929 25.9046 64.0267 15.4362C61.2227 11.2862 58.4934 8.4822 57.2223 8.4822C57.0727 8.4822 56.4371 8.81868 55.8015 9.19255Z"/>
</mask>
<path d="M55.8015 9.19255C55.2033 9.56643 50.2308 14.3894 44.8097 19.8479L34.9395 29.8303L27.3872 22.3155C20.8445 15.8101 19.7229 14.838 18.7134 14.838C17.8909 14.838 17.2927 15.1371 16.7693 15.8101C15.9841 16.7822 15.9841 17.1934 15.9841 33.7186C15.9841 50.2437 15.9841 50.655 16.7693 51.6271C17.7413 52.8608 19.6481 52.973 20.6949 51.814C21.3679 51.0663 21.4053 50.2064 21.5174 37.5321L21.6296 24.0353L27.7611 30.1668C33.0701 35.4758 34.0422 36.2609 35.0516 36.2609C36.0985 36.2609 37.4444 35.0645 46.8286 25.6803L57.4466 15.0623L58.3065 16.1092C60.8488 19.2497 62.8303 23.3249 64.1389 28.1105C65.0736 31.5501 64.9614 38.878 63.9146 42.6167C63.0173 45.7199 61.1479 49.7203 59.5776 51.814C57.7831 54.2442 58.643 56.7117 61.2601 56.7117C62.6434 56.7117 64.1389 54.8424 66.27 50.5428C71.9528 39.0276 71.0929 25.9046 64.0267 15.4362C61.2227 11.2862 58.4934 8.4822 57.2223 8.4822C57.0727 8.4822 56.4371 8.81868 55.8015 9.19255Z" fill="white"/>
<path d="M55.8015 9.19255L19.2316 -49.3193L20.0179 -49.8108L20.8171 -50.2809L55.8015 9.19255ZM44.8097 19.8479L-4.25555 -28.666L-4.20186 -28.7203L-4.14805 -28.7745L44.8097 19.8479ZM34.9395 29.8303L84.0047 78.3442L35.3368 127.565L-13.7297 78.7416L34.9395 29.8303ZM27.3872 22.3155L76.0376 -26.6145L76.047 -26.6052L76.0564 -26.5958L27.3872 22.3155ZM16.7693 15.8101L71.2346 58.172L70.8454 58.6723L70.4472 59.1654L16.7693 15.8101ZM16.7693 51.6271L70.4472 8.27181L70.7097 8.59677L70.9682 8.92488L16.7693 51.6271ZM20.6949 51.814L71.9822 97.9726L71.9412 98.0182L71.9 98.0638L20.6949 51.814ZM21.5174 37.5321L90.5151 38.1055L90.5149 38.1241L90.5147 38.1427L21.5174 37.5321ZM21.6296 24.0353L-47.368 23.4619L-45.9998 -141.175L70.42 -24.7551L21.6296 24.0353ZM57.4466 15.0623L8.65621 -33.728L62.4639 -87.5357L110.765 -28.7347L57.4466 15.0623ZM58.3065 16.1092L111.625 -27.6878L111.781 -27.4972L111.936 -27.3055L58.3065 16.1092ZM64.1389 28.1105L130.696 9.9114L130.71 9.96401L130.724 10.0166L64.1389 28.1105ZM63.9146 42.6167L130.359 61.2212L130.28 61.5026L130.199 61.7834L63.9146 42.6167ZM59.5776 51.814L4.07175 10.825L4.22394 10.619L4.37765 10.414L59.5776 51.814ZM66.27 50.5428L128.145 81.0787L128.119 81.1321L128.093 81.1854L66.27 50.5428ZM64.0267 15.4362L121.199 -23.1939L121.208 -23.1807L121.217 -23.1674L64.0267 15.4362ZM92.3715 67.7044C93.5718 66.9542 94.5514 66.29 95.2471 65.8047C95.9628 65.3054 96.5649 64.8648 97.0266 64.52C97.4956 64.1696 97.8987 63.8589 98.2227 63.6053C98.5498 63.3492 98.8353 63.1207 99.0719 62.9291C99.5355 62.5535 99.9108 62.2387 100.171 62.0182C100.438 61.7912 100.657 61.6014 100.815 61.4628C101.122 61.1942 101.337 60.9999 101.426 60.9195C101.525 60.8294 101.574 60.7838 101.561 60.7954C101.53 60.8247 101.391 60.9548 101.123 61.2099C100.865 61.4558 100.539 61.7697 100.145 62.1521C99.3527 62.9199 98.3795 63.8738 97.2769 64.9655C96.1797 66.0518 94.9894 67.2399 93.7674 68.4703L-4.14805 -28.7745C-1.20171 -31.7412 1.71192 -34.6255 4.08378 -36.9252C5.23703 -38.0433 6.47848 -39.2332 7.62687 -40.3003C8.16734 -40.8024 8.99836 -41.5674 9.94434 -42.3951C10.4025 -42.7959 11.2054 -43.4906 12.2063 -44.3013C12.6184 -44.6352 15.406 -46.9283 19.2316 -49.3193L92.3715 67.7044ZM93.8749 68.3619L84.0047 78.3442L-14.1258 -18.6836L-4.25555 -28.666L93.8749 68.3619ZM-13.7297 78.7416L-21.2819 71.2268L76.0564 -26.5958L83.6086 -19.081L-13.7297 78.7416ZM-21.2631 71.2454C-25.171 67.3599 -25.1348 67.4865 -24.0933 68.3849C-23.6857 68.7365 -19.7966 72.174 -13.7632 75.5035C-10.3171 77.4052 -5.52614 79.6458 0.472274 81.3284C6.75836 83.0916 12.9257 83.838 18.7134 83.838V-54.162C47.372 -54.162 65.4747 -36.6015 66.0439 -36.1105C69.5343 -33.0997 73.4027 -29.2343 76.0376 -26.6145L-21.2631 71.2454ZM18.7134 83.838C26.9685 83.838 37.548 82.2566 48.4869 76.7872C59.2983 71.3815 66.6308 64.0911 71.2346 58.172L-37.696 -26.5518C-32.5688 -33.1439 -24.6756 -40.9203 -13.2286 -46.6438C-1.65409 -52.431 9.63575 -54.162 18.7134 -54.162V83.838ZM70.4472 59.1654C70.9778 58.5084 74.0156 54.8005 76.9622 49.4457C80.0977 43.7476 82.0107 38.3182 83.1803 33.7262C84.2301 29.6047 84.6309 26.3354 84.7922 24.8122C84.9631 23.198 85.0107 22.0795 85.019 21.8864C85.0312 21.6012 85.0077 22.0741 84.9955 24.4415C84.9844 26.5983 84.9841 29.5104 84.9841 33.7186H-53.0159C-53.0159 26.5343 -53.0345 20.179 -52.8544 15.9775C-52.7941 14.5699 -52.5794 7.6317 -50.5496 -0.337106C-47.1702 -13.6045 -40.8556 -22.6584 -36.9087 -27.5452L70.4472 59.1654ZM84.9841 33.7186C84.9841 37.9268 84.9844 40.8389 84.9955 42.9956C85.0077 45.3631 85.0312 45.8359 85.019 45.5508C85.0107 45.3576 84.9631 44.2392 84.7922 42.625C84.6309 41.1017 84.2301 37.8325 83.1803 33.711C82.0107 29.119 80.0977 23.6896 76.9622 17.9915C74.0156 12.6367 70.9778 8.92879 70.4472 8.27181L-36.9087 94.9823C-40.8556 90.0956 -47.1702 81.0417 -50.5496 67.7743C-52.5794 59.8055 -52.7941 52.8672 -52.8544 51.4597C-53.0345 47.2581 -53.0159 40.9029 -53.0159 33.7186H84.9841ZM70.9682 8.92488C47.0526 -21.4295 -1.23767 -26.8446 -30.5102 5.56425L71.9 98.0638C40.5338 132.791 -11.57 127.151 -37.4297 94.3293L70.9682 8.92488ZM-30.5924 5.65544C-32.7969 8.10495 -36.3188 12.373 -39.5952 18.3536C-42.7852 24.1766 -44.6094 29.5418 -45.6837 33.6694C-46.6849 37.516 -47.1077 40.5864 -47.2908 42.1179C-47.484 43.7339 -47.5532 44.8937 -47.5725 45.2333C-47.5845 45.4447 -47.5448 44.2609 -47.4799 36.9215L90.5147 38.1427C90.4675 43.4775 90.4325 49.0608 90.2055 53.0577C90.1213 54.5399 89.8106 60.9613 87.8669 68.4292C84.8082 80.181 79.0634 90.1046 71.9822 97.9726L-30.5924 5.65544ZM-47.4802 36.9587L-47.368 23.4619L90.6272 24.6087L90.5151 38.1055L-47.4802 36.9587ZM70.42 -24.7551L76.5515 -18.6236L-21.0293 78.9572L-27.1608 72.8257L70.42 -24.7551ZM76.5515 -18.6236C79.8651 -15.3099 79.0504 -16.2548 77.1678 -17.8222C76.1566 -18.6641 71.6977 -22.3879 64.8621 -25.7741C61.0371 -27.6689 56.2796 -29.5644 50.6663 -30.9025C44.9362 -32.2684 39.6345 -32.7391 35.0516 -32.7391V105.261C9.12202 105.261 -7.48444 91.2672 -11.1304 88.2317C-15.0786 84.9444 -19.0339 80.9525 -21.0293 78.9572L76.5515 -18.6236ZM35.0516 -32.7391C27.9929 -32.7391 20.8494 -31.6334 13.9312 -29.3598C7.57011 -27.2694 2.77925 -24.6413 -0.180868 -22.8174C-3.10804 -21.0139 -5.2139 -19.3903 -6.24088 -18.5719C-7.33811 -17.6974 -8.0671 -17.0471 -8.27217 -16.863C-8.34125 -16.801 -7.17777 -17.894 -1.96177 -23.11L95.619 74.4707C91.4508 78.6389 87.2492 82.8362 83.8994 85.8424C82.5173 87.0827 78.1618 91.004 72.2084 94.6721C64.5232 99.4073 51.7648 105.261 35.0516 105.261V-32.7391ZM-1.96177 -23.11L8.65621 -33.728L106.237 63.8527L95.619 74.4707L-1.96177 -23.11ZM110.765 -28.7347L111.625 -27.6878L4.98837 59.9062L4.12847 58.8594L110.765 -28.7347ZM111.936 -27.3055C121.681 -15.2678 127.424 -2.05444 130.696 9.9114L-2.4178 46.3096C-1.76299 48.7043 0.0164553 53.7672 4.67659 59.5239L111.936 -27.3055ZM130.724 10.0166C133.726 21.0615 133.838 31.3702 133.762 36.3147C133.679 41.6789 133.178 51.1552 130.359 61.2212L-2.52995 24.0123C-3.60471 27.8507 -3.94066 30.6214 -4.04089 31.5084C-4.17568 32.7011 -4.21253 33.5732 -4.22201 34.1882C-4.23127 34.7894 -4.22417 35.7657 -4.10627 37.1515C-4.02576 38.0979 -3.71912 41.5211 -2.44649 46.2043L130.724 10.0166ZM130.199 61.7834C127.615 70.7191 122.563 82.8334 114.778 93.214L4.37765 10.414C2.55969 12.838 1.4135 14.7673 0.87679 15.707C0.264374 16.7791 -0.159599 17.6304 -0.442033 18.231C-0.884621 19.1721 -1.6135 20.834 -2.36998 23.4501L130.199 61.7834ZM115.084 92.803C122.892 82.2293 133.375 59.8549 123.988 32.6604C112.936 0.641038 83.5732 -12.2883 61.2601 -12.2883V125.712C36.3299 125.712 5.22874 111.549 -6.45922 77.6879C-16.4817 48.6521 -5.53106 23.8289 4.07175 10.825L115.084 92.803ZM61.2601 -12.2883C45.1737 -12.2883 32.5345 -6.64763 24.3697 -1.2692C16.7653 3.74 12.0467 9.11648 9.84891 11.8321C7.46125 14.7824 5.99426 17.1781 5.40087 18.1808C5.04914 18.7752 4.80213 19.2261 4.66248 19.4871C4.52053 19.7523 4.44751 19.9 4.44735 19.9003L128.093 81.1854C126.492 84.414 122.875 91.5362 117.12 98.6471C113.247 103.433 94.7165 125.712 61.2601 125.712V-12.2883ZM4.39461 20.0069C-0.725755 30.3824 -0.160184 43.6749 6.83617 54.0398L121.217 -23.1674C142.346 8.13442 144.631 47.6727 128.145 81.0787L4.39461 20.0069ZM6.85409 54.0664C6.96112 54.2248 8.14348 56.0109 10.6953 58.6227C11.8534 59.8081 14.8249 62.7535 19.4343 65.9109C21.7865 67.5221 25.7231 69.9911 31.035 72.2231C36.0183 74.3171 45.2125 77.4822 57.2223 77.4822V-60.5178C79.3566 -60.5178 94.4137 -50.0002 97.4205 -47.9406C102.987 -44.1277 107.054 -40.2219 109.404 -37.8168C114.339 -32.7654 118.288 -27.5023 121.199 -23.1939L6.85409 54.0664ZM57.2223 77.4822C63.1957 77.4822 67.9137 76.6974 70.4742 76.195C73.2923 75.642 75.5664 75.0111 77.0654 74.5591C79.9964 73.6752 82.2409 72.78 83.3604 72.3178C85.6753 71.362 87.3854 70.4994 87.9983 70.1874C89.4395 69.4537 90.4318 68.8743 90.7859 68.666L20.8171 -50.2809C21.8069 -50.8631 23.4347 -51.7977 25.39 -52.7931C26.2599 -53.2359 28.1967 -54.206 30.6927 -55.2366C31.9028 -55.7362 34.2264 -56.6606 37.2233 -57.5643C38.8305 -58.049 46.7625 -60.5178 57.2223 -60.5178V77.4822Z" fill="white" mask="url(#path-3-inside-2_352_378)"/>
</svg>
