<svg xmlns="http://www.w3.org/2000/svg" width="730" height="165" viewBox="0 0 730 165">
  <defs>
    <style>
      .cls-1 {
        fill: #fbfbfb;
      }

      .cls-1, .cls-2 {
        fill-rule: evenodd;
      }

      .cls-2 {
        fill: #726eff;
      }
    </style>
  </defs>
  <g id="Artboard_1" data-name="Artboard 1">
    <path id="open" class="cls-1" d="M168.152,591.422q11.406,11.865,29.909,11.864a43.242,43.242,0,0,0,21.28-5.393,36.114,36.114,0,0,0,14.851-15.141q5.1-9.748,5.1-26.757,0-20.988-11.532-32.895t-29.7-11.906q-16.346,0-27.711,9.79-13.607,11.783-13.606,36.256Q156.744,579.559,168.152,591.422Zm11.324-59.486a24.619,24.619,0,0,1,37.044.041q7.425,8.423,7.426,24.765,0,17.341-7.384,25.8a24.586,24.586,0,0,1-37.086.042q-7.385-8.42-7.383-25.346T179.476,531.936Zm92.258,103.125V592.168a30.472,30.472,0,0,0,9.748,7.965,28.111,28.111,0,0,0,13.4,3.153,36.894,36.894,0,0,0,33.559-22.359,58.9,58.9,0,0,0,4.854-24.351,59.835,59.835,0,0,0-4.4-23.188A35.653,35.653,0,0,0,315.871,517a34.825,34.825,0,0,0-19.912-5.808,29.854,29.854,0,0,0-14.684,3.36,33.52,33.52,0,0,0-10.869,10.081V513.186H256.8V635.061h14.934Zm5.932-103.25q7.342-8.918,16.883-8.919,9.624,0,16.552,8.38t6.927,25.221q0,17.671-7.093,26.093t-17.05,8.421q-9.79,0-16.676-8.131t-6.886-25.138Q270.323,540.731,277.666,531.811ZM402.4,586.693a22.857,22.857,0,0,1-14.022,4.314,24.445,24.445,0,0,1-18.418-7.716q-7.385-7.716-8.213-22.235h65.708q0.081-2.654.083-3.982,0-21.819-11.2-33.85t-28.872-12.03q-18.254,0-29.7,12.279t-11.449,34.514q0,21.488,11.325,33.393T388.3,603.286q15.346,0,25.221-7.467t13.523-20.99l-15.431-1.909Q408.21,582.379,402.4,586.693Zm-32.066-56.334a23.724,23.724,0,0,1,17.3-6.886,22.891,22.891,0,0,1,18.5,8.629q4.645,5.559,5.642,16.676h-49.2Q363.327,537.246,370.338,530.359Zm90.39,70.935V553.175q0-16.926,6.928-22.982a24.2,24.2,0,0,1,16.468-6.056,19.675,19.675,0,0,1,10.412,2.7,14.357,14.357,0,0,1,6.181,7.218q1.743,4.522,1.742,13.648v53.6h14.934V547.118q0-10.37-.829-14.519a28.852,28.852,0,0,0-4.647-11.034,23.033,23.033,0,0,0-10-7.508,36.773,36.773,0,0,0-14.643-2.863q-18.337,0-28.042,14.519V513.186H445.794v88.108h14.934Z" transform="translate(-158 -479)"/>
    <path id="hack" class="cls-2" d="M554.236,601.294v-48.2q0-10.371,2.489-16.261a19.455,19.455,0,0,1,8.338-9.334,24.216,24.216,0,0,1,12.487-3.443q8.876,0,13.73,5.1t4.854,16.3v55.835h14.933V545.459q0-12.942-3.111-19.746a22.657,22.657,0,0,0-10.329-10.661,35.577,35.577,0,0,0-17.008-3.858,33.364,33.364,0,0,0-26.383,12.113V479.668H539.3V601.294h14.933Zm140.045,0h15.6a33.181,33.181,0,0,1-3.775-10.578q-0.956-5.516-.954-26.341V544.463q0-9.955-.747-13.772a23.5,23.5,0,0,0-4.646-10.163q-3.319-4.023-10.371-6.679t-18.335-2.655a58.805,58.805,0,0,0-19.994,3.112q-8.631,3.111-13.192,8.877t-6.554,15.141l14.6,1.991q2.4-9.375,7.425-13.067t15.556-3.692q11.281,0,17.008,5.061,4.231,3.734,4.231,12.86,0,0.829-.083,3.9-8.545,2.986-26.632,5.144a106.719,106.719,0,0,0-13.274,2.24,36.3,36.3,0,0,0-10.744,4.895,24.367,24.367,0,0,0-7.716,8.587,24.1,24.1,0,0,0-2.945,11.822,23.41,23.41,0,0,0,7.8,18.128q7.8,7.094,22.317,7.094a46.176,46.176,0,0,0,16.469-2.9,55.628,55.628,0,0,0,15.971-9.956,31.642,31.642,0,0,0,2.986,10.868h0ZM690.05,562.55q0,9.873-2.406,14.933a23.249,23.249,0,0,1-9.873,10.33,30.791,30.791,0,0,1-15.348,3.775q-8.712,0-13.233-3.983a13.2,13.2,0,0,1-2.448-17.049,12.987,12.987,0,0,1,5.891-4.854q3.814-1.658,13.025-2.986,16.26-2.322,24.392-5.642v5.476Zm88.275,23.064a20.925,20.925,0,0,1-14.685,5.393,22.134,22.134,0,0,1-17.754-8.048q-6.8-8.046-6.8-25.8,0-17.505,7.052-25.6t18.335-8.089a19,19,0,0,1,12.735,4.48q5.268,4.481,7.342,13.358l14.519-2.24q-2.572-13.357-11.7-20.617t-23.479-7.26a42.7,42.7,0,0,0-21.032,5.352A32.967,32.967,0,0,0,728.463,532.6q-4.73,10.7-4.729,24.973,0,22.069,10.993,33.891t29.079,11.823q14.436,0,24.35-8.587t12.321-23.77l-14.685-1.908Q784.216,580.222,778.325,585.614Zm49.945,15.68V566.366l10.537-10.122,29.12,45.05h18.419l-37.086-55.42,33.684-32.688H863.613l-35.343,35.84V479.668H813.336V601.294H828.27ZM802.053,644.1V631.66h84.956V644.1H802.053Z" transform="translate(-158 -479)"/>
  </g>
</svg>
