<svg width="342" height="152" viewBox="0 0 342 152" fill="none" xmlns="http://www.w3.org/2000/svg">
<path d="M108.136 60.5635V70.1637H77.5392L76.276 60.5635L73.6139 40.3322L72.3515 30.7319L71.1158 21.4427L70.1008 13.6963C69.9019 12.2711 69.4971 11.3511 68.3923 11.3511C67.4791 11.3511 66.8754 12.0433 66.5739 13.3853L60.823 33.5473L52.6507 62.1961C51.546 66.2628 48.3141 68.2969 44.485 68.2969C40.8482 68.2969 37.4248 66.2628 36.3128 62.3969L22.493 13.2881C22.0881 11.8637 21.5871 11.2548 20.6746 11.2548C19.7622 11.2548 19.0623 11.9462 18.8635 13.5926L10.4917 70.5515H0L9.48308 10.1341C10.389 4.23403 14.6222 1.08729 20.0709 1.08729C24.9151 1.08729 29.0465 3.42509 30.5626 8.81333L43.6 56.2961C43.8061 57.2095 44.0049 57.5131 44.5125 57.5131C45.0208 57.5131 45.1986 57.2095 45.5219 56.2961L58.4009 8.99291C58.8785 6.96773 59.9687 5.14254 61.5196 3.76793C63.0705 2.39414 65.0069 1.5395 67.0604 1.32237C68.128 1.09463 69.2158 0.986054 70.306 0.997482H107.429V10.5977H79.4052L82.2872 30.7319H105.411V40.3322H83.653L86.5487 60.5635H108.136Z" fill="black"/>
<path d="M35.6888 150.624V83.4209H45.8378V112.409H81.1622V83.4209H91.3112V150.624H81.1622V121.836H45.8378V150.624H35.6888Z" fill="black"/>
<path d="M118.86 91.5477C120.85 85.2265 125.722 82.2177 131.301 82.2177C136.879 82.2177 141.847 85.2265 143.837 91.5477L162.042 150.623H151.694L146.842 134.183L115.8 134.286L110.921 150.637H100.655L118.86 91.5477ZM118.565 124.941H144.132L135.177 94.5565C134.491 92.4472 133.29 91.444 131.397 91.444C129.502 91.444 128.212 92.4472 127.615 94.5565L118.565 124.941Z" fill="black"/>
<path d="M163.828 116.891C163.828 97.5244 178.924 82.1899 197.76 82.1899C209.199 82.1899 219.65 88.1112 224.72 97.9399L216.486 102.781C212.602 96.0584 205.94 91.9501 197.383 91.9501C184.428 91.9501 174.285 102.781 174.285 116.891C174.285 131.237 184.332 142.171 197.369 142.171C205.926 142.171 212.691 138.021 216.473 131.334L224.706 136.175C219.636 146.01 209.185 151.827 197.746 151.827C178.952 151.827 163.828 136.48 163.828 116.891Z" fill="black"/>
<path d="M233.776 150.624V83.4209H243.925V112.409H253.579C254.449 109.865 255.801 107.516 257.559 105.492L276.168 83.4282H287.833L266.926 108.494C264.339 111.807 262.85 114.415 262.85 116.918C262.85 119.423 264.339 121.836 266.926 125.142L288.52 150.624H275.969L257.559 128.857C255.798 126.796 254.446 124.413 253.579 121.836H243.925V150.624H233.776Z" fill="black"/>
<path d="M292.485 137.382L301.042 133.176C303.629 138.993 309.277 142.099 317.16 142.099C325.045 142.099 330.884 138.391 330.884 131.765C330.884 124.343 324.119 123.043 316.255 121.535C306.202 119.53 293.769 116.224 293.769 101.982C293.769 90.8457 303.814 82.4217 316.454 82.4217C326.602 82.4217 335.667 87.2631 339.64 96.4625L331.18 100.875C328.489 95.3417 323.419 91.9525 316.083 91.9525C309.318 91.9525 303.842 95.9645 303.842 101.678C303.842 108.898 310.909 110.503 318.938 112.108C328.888 114.114 341.033 117.427 341.033 131.668C341.033 143.503 330.583 151.727 317.147 151.727C305.921 151.727 296.438 146.636 292.485 137.382Z" fill="black"/>
<path d="M111.963 34.7007C111.963 15.3345 127.059 0 145.888 0C157.334 0 167.784 5.92045 172.855 15.7492L164.621 20.5914C160.717 13.8334 154.047 9.73163 145.476 9.73163C132.542 9.73163 122.393 20.5636 122.393 34.7007C122.393 49.0459 132.445 59.975 145.476 59.975C154.033 59.975 160.806 55.8659 164.58 49.143L172.814 53.9844C167.743 63.8131 157.293 69.6299 145.847 69.6299C127.087 69.603 111.963 54.2611 111.963 34.7007Z" fill="black"/>
<path d="M192.047 1.20236V68.3973H181.898V1.20236H192.047Z" fill="black"/>
<path d="M219.506 9.33084C221.495 3.00879 226.374 0 231.926 0C237.476 0 242.492 3.00879 244.482 9.33084L262.687 68.399H252.339L247.468 51.951L216.424 52.0547L211.545 68.399H201.301L219.506 9.33084ZM219.21 42.7247H244.777L235.823 12.3396C235.137 10.2296 233.936 9.22716 232.042 9.22716C230.148 9.22716 228.858 10.2296 228.261 12.3396L219.21 42.7247Z" fill="black"/>
</svg>
