<svg width="247" height="114" viewBox="0 0 247 114" fill="none" xmlns="http://www.w3.org/2000/svg">
<path d="M79.8675 45.5301V45.0301H79.3675H64.3578L62.4254 31.1556H77.4183H77.9183V30.6556V23.5973V23.0973H77.4183H61.3089L59.3862 9.29422H78.8621H79.3621V8.79422V1.73595V1.23595H78.8621H52.3043C51.4963 1.22745 50.6901 1.30925 49.8986 1.48071C48.3323 1.65669 46.8585 2.32906 45.6786 3.40309L45.6785 3.40319C44.4944 4.4817 43.6635 5.911 43.2984 7.4942L34.0907 42.2468C34.0366 42.4034 33.9921 42.5229 33.9515 42.6164C33.9101 42.7117 33.8803 42.7617 33.8615 42.787C33.8575 42.7872 33.8527 42.7873 33.8472 42.7873C33.8438 42.7873 33.8407 42.7873 33.8379 42.7872C33.8247 42.7647 33.8046 42.7236 33.7802 42.6528C33.7495 42.5635 33.7177 42.4447 33.6827 42.2853L33.6803 42.2743L33.6774 42.2635L24.3496 7.35324L24.3488 7.35026C23.7794 5.27073 22.7077 3.74746 21.2949 2.74834C19.8865 1.75229 18.1746 1.30198 16.3601 1.30198C14.3111 1.30198 12.4597 1.91117 11.0308 3.11915C9.60043 4.32845 8.63003 6.10706 8.29043 8.37867C8.29039 8.37893 8.29035 8.37919 8.29031 8.37945L1.50573 52.7979L1.41783 53.3734H2H9.50644H9.94001L10.0014 52.9442L15.9912 11.0669L15.9913 11.067L15.9928 11.0545C16.058 10.4993 16.199 10.1738 16.3418 9.99673C16.4692 9.83877 16.6132 9.77733 16.792 9.77733C16.9795 9.77733 17.0907 9.83071 17.1985 9.95685C17.3328 10.114 17.4713 10.4004 17.6109 10.9049C17.611 10.9051 17.611 10.9054 17.6111 10.9056L27.4983 47.0101L27.4991 47.0128C28.3631 50.0994 31.0322 51.7158 33.8275 51.7158C36.7732 51.7158 39.2983 50.0872 40.1524 46.8612C40.1527 46.8602 40.153 46.8592 40.1532 46.8581L45.9986 25.8009L45.5644 25.6804L45.9986 25.8009L50.1132 10.9774L50.1169 10.9641L50.1199 10.9505C50.2187 10.4984 50.3556 10.2153 50.496 10.0529C50.6207 9.90871 50.7555 9.84816 50.9324 9.84816C51.0562 9.84816 51.1351 9.87386 51.19 9.90503C51.2458 9.93673 51.3043 9.98974 51.3636 10.0838C51.4922 10.288 51.5897 10.6278 51.659 11.1378C51.6591 11.1384 51.6592 11.139 51.6593 11.1396L52.385 16.831L52.3851 16.8319L53.2691 23.6608L53.2692 23.6615L54.1723 30.719L54.1723 30.7191L56.077 45.5936L56.9807 52.6518L57.0366 53.0883H57.4767H79.3675H79.8675V52.5883V45.5301Z" fill="#FFFBF4" stroke="white"/>
<path d="M27.0332 111.742V112.242H27.5332H34.7945H35.2945V111.742V91.0768H59.5679V111.742V112.242H60.0679H67.3291H67.8291V111.742V62.333V61.833H67.3291H60.0679H59.5679V62.333V83.1458H35.2945V62.333V61.833H34.7945H27.5332H27.0332V62.333V111.742Z" fill="#FFFBF4" stroke="white"/>
<path d="M86.56 68.1614L86.5591 68.1643L73.5347 111.608L73.3418 112.251H74.0137H81.3582H81.7337L81.8384 111.891L85.2248 100.229L106.683 100.155L110.049 111.879L110.153 112.241H110.53H117.933H118.605L118.412 111.598L105.387 68.1642L105.387 68.1614C103.896 63.2961 100.142 60.9482 95.9392 60.9482C91.7318 60.9482 88.0496 63.3002 86.56 68.1614ZM93.7827 70.6592L93.7828 70.6592L93.7845 70.6528C93.9798 69.9443 94.2739 69.4731 94.6275 69.1783C94.9756 68.8879 95.4254 68.7316 96.008 68.7316C96.588 68.7316 97.0206 68.8866 97.3608 69.1754C97.7093 69.4713 98.0059 69.9461 98.2342 70.6645L104.456 92.3596H87.4925L93.7827 70.6592Z" fill="#FFFBF4" stroke="white"/>
<path d="M163.039 73.4364L163.435 73.1973L163.228 72.7841C159.51 65.3779 151.853 60.9287 143.492 60.9287C129.717 60.9287 118.715 72.4495 118.715 86.9419C118.715 101.595 129.735 113.127 143.482 113.127C151.839 113.127 159.498 108.758 163.218 101.344L163.425 100.931L163.03 100.692L157.139 97.1323L156.693 96.863L156.442 97.3192C153.823 102.079 149.15 105.028 143.212 105.028C134.213 105.028 127.196 97.2689 127.196 86.9419C127.196 76.7955 134.275 69.1046 143.222 69.1046C149.157 69.1046 153.761 72.0222 156.454 76.8129L156.707 77.2626L157.148 76.9958L163.039 73.4364Z" fill="#FFFBF4" stroke="white"/>
<path d="M125.93 13.0071L126.326 12.768L126.118 12.3548C122.4 4.94849 114.743 0.5 106.377 0.5C92.6077 0.5 81.6055 12.0209 81.6055 26.5126C81.6055 41.1452 92.6253 52.673 106.348 52.6933H106.348C114.71 52.6933 122.369 48.3239 126.089 40.9147L126.297 40.5015L125.901 40.2624L120.01 36.703L119.563 36.4329L119.312 36.8912C116.7 41.6736 112.022 44.5948 106.083 44.5948C97.0889 44.5948 90.068 36.8394 90.068 26.5126C90.068 16.3458 97.1514 8.65488 106.083 8.65488C112.028 8.65488 116.637 11.5678 119.345 16.3842L119.598 16.834L120.039 16.5671L125.93 13.0071Z" fill="#FFFBF4" stroke="white"/>
<path d="M139.908 1.88184V1.38184H139.408H132.146H131.646V1.88184V51.2849V51.7849H132.146H139.408H139.908V51.2849V1.88184Z" fill="#FFFBF4" stroke="white"/>
<path d="M158.57 7.71379L158.569 7.71658L145.545 51.1446L145.351 51.7882H146.023H153.353H153.728L153.833 51.4277L157.219 39.7703L178.678 39.6967L182.059 51.4267L182.163 51.7882H182.54H189.943H190.615L190.422 51.1446L177.397 7.71657L177.396 7.71379C175.906 2.84636 172.116 0.5 167.934 0.5C163.746 0.5 160.059 2.85222 158.57 7.71379ZM165.793 10.2116L165.793 10.2116L165.795 10.2049C165.99 9.49618 166.284 9.02508 166.637 8.7304C166.985 8.44016 167.435 8.28399 168.018 8.28399C168.598 8.28399 169.03 8.43884 169.371 8.72759C169.719 9.0234 170.016 9.49812 170.244 10.2168L176.466 31.912H159.502L165.793 10.2116Z" fill="#FFFBF4" stroke="white"/>
<path d="M168.758 111.742V112.242H169.258H176.519H177.019V111.742V91.0768H183.068C183.709 92.898 184.664 94.5856 185.888 96.0574C185.889 96.0577 185.889 96.0581 185.889 96.0584L199.059 112.06L199.209 112.242H199.445H208.425H209.485L208.81 111.424L193.367 92.6969C191.511 90.2588 190.559 88.6111 190.559 86.961C190.559 85.3053 191.52 83.5094 193.368 81.0764L208.322 62.6535L208.984 61.8384H207.934H199.588H199.351L199.201 62.0212L185.889 78.2402C184.668 79.6852 183.713 81.348 183.07 83.1458H177.019V62.333V61.833H176.519H169.258H168.758V62.333V111.742Z" fill="#FFFBF4" stroke="white"/>
<path d="M211.04 101.561L210.626 101.77L210.804 102.199C213.727 109.231 220.726 113.054 228.91 113.054C238.718 113.054 246.5 106.859 246.5 97.8067C246.5 92.4005 244.241 89.0222 241.048 86.8304C237.894 84.6651 233.85 83.6727 230.293 82.9359L230.292 82.9358C227.401 82.342 224.783 81.7643 222.881 80.703C221.94 80.1782 221.199 79.5471 220.691 78.7582C220.185 77.9731 219.891 77.0005 219.891 75.7569C219.891 71.9327 223.473 69.1069 228.149 69.1069C233.208 69.1069 236.657 71.4902 238.498 75.3808L238.723 75.856L239.186 75.6077L245.239 72.3633L245.64 72.1484L245.464 71.7289C242.53 64.7478 235.839 61.0996 228.414 61.0996C219.158 61.0996 211.684 67.4581 211.684 75.9808C211.684 81.3922 213.999 84.7689 217.252 86.9571C220.466 89.1192 224.579 90.1098 228.172 90.8464L228.176 90.8472C231.015 91.4065 233.543 91.9105 235.373 92.924C236.275 93.4235 236.983 94.0354 237.469 94.8197C237.954 95.602 238.239 96.5902 238.239 97.8776C238.239 100.152 237.272 101.903 235.648 103.101C234.008 104.311 231.667 104.975 228.92 104.975C223.425 104.975 219.599 102.765 217.847 98.7166L217.636 98.2297L217.162 98.4689L211.04 101.561Z" fill="#FFFBF4" stroke="white"/>
</svg>
