<svg width="150" height="150" viewBox="0 0 150 150" fill="none" xmlns="http://www.w3.org/2000/svg">
<path d="M31.2552 53.9555V60.911L36.797 67.3231C39.8101 70.8552 45.9975 78.0824 50.5708 83.4077C57.0273 90.8523 59.018 92.9715 59.3946 92.6455C59.7175 92.3738 63.1071 88.1353 67.0348 83.2447C70.9625 78.2998 74.1907 74.333 74.2445 74.4416C74.3521 74.5503 74.4059 81.0168 74.4059 88.896C74.4059 96.7753 74.5673 103.296 74.7825 103.405C74.9977 103.513 76.2352 103.35 77.5803 102.97C81.0238 102.101 84.0368 99.7097 85.4895 96.6123C86.5656 94.33 86.6732 93.841 86.7808 87.7549L86.8884 81.3971H97.7568H108.518V92.2651C108.518 99.1663 108.679 103.242 108.948 103.405C109.647 103.839 113.952 102.372 115.889 101.068C117.826 99.7097 119.763 97.1014 120.516 94.8734C120.892 93.841 121 86.7224 121 70.2031V47L119.44 47.2717C115.297 47.9781 111.369 51.0755 109.647 54.988C108.948 56.5638 108.787 58.031 108.625 63.0846L108.464 69.2793H97.703H86.9422V58.1397V47L85.3819 47.2717C83.2835 47.6521 80.2705 48.9562 79.0868 50.0974C78.5488 50.5864 73.9217 56.0748 68.7565 62.3238C63.6451 68.5186 59.287 73.6265 59.0718 73.6265C58.9104 73.6265 55.3594 69.4967 51.2165 64.3888C40.4019 51.1842 38.9492 49.6083 36.528 48.5215C35.3443 47.9781 33.7302 47.4347 32.8694 47.326L31.2552 47V53.9555Z" fill="white"/>
<path d="M34.8468 85.6067C30.3339 87.0979 28.5939 91.6709 31.2582 95.2C32.6175 96.9894 34.4118 97.8344 36.8586 97.8344C42.894 97.8344 46.0476 91.3726 41.9696 87.3961C40.0666 85.5073 37.2392 84.8114 34.8468 85.6067Z" fill="white"/>
<circle cx="75" cy="75" r="69" stroke="white" stroke-width="12"/>
</svg>
